<?xml version="1.0" standalone="no"?>
<!DOCTYPE svg PUBLIC "-//W3C//DTD SVG 1.1//EN" "http://www.w3.org/Graphics/SVG/1.1/DTD/svg11.dtd" >
<svg xmlns="http://www.w3.org/2000/svg">
<metadata>Generated by IcoMoon</metadata>
<defs>
<font id="icomoon" horiz-adv-x="1024">
<font-face units-per-em="1024" ascent="960" descent="-64" />
<missing-glyph horiz-adv-x="1024" />
<glyph unicode="&#x20;" horiz-adv-x="512" d="" />
<glyph unicode="&#x21;" glyph-name="uni21" horiz-adv-x="256" d="M128 153.6c-14.138 0-25.6 11.461-25.6 25.6v51.2c0 14.139 11.462 25.6 25.6 25.6s25.6-11.461 25.6-25.6v-51.2c0-14.139-11.462-25.6-25.6-25.6zM128 358.4c-14.138 0-25.6 11.461-25.6 25.6v409.6c0 14.138 11.462 25.6 25.6 25.6s25.6-11.462 25.6-25.6v-409.6c0-14.139-11.462-25.6-25.6-25.6z" />
<glyph unicode="&#x22;" glyph-name="uni22" horiz-adv-x="256" d="M76.8 665.6c-14.138 0-25.6 11.461-25.6 25.6v153.6c0 14.139 11.462 25.6 25.6 25.6s25.6-11.461 25.6-25.6v-153.6c0-14.139-11.461-25.6-25.6-25.6zM179.2 665.6c-14.138 0-25.6 11.461-25.6 25.6v153.6c0 14.139 11.462 25.6 25.6 25.6 14.139 0 25.6-11.461 25.6-25.6v-153.6c0-14.139-11.461-25.6-25.6-25.6z" />
<glyph unicode="&#x23;" glyph-name="uni23" horiz-adv-x="717" d="M640 665.6h-97.779l20.632 123.792c2.325 13.946-7.098 27.136-21.043 29.461-13.931 2.326-27.134-7.098-29.459-21.043l-22.037-132.21h-204.093l20.632 123.792c2.325 13.946-7.098 27.136-21.043 29.461-13.928 2.326-27.134-7.098-29.459-21.043l-22.037-132.21h-106.314c-14.138 0-25.6-11.462-25.6-25.6s11.462-25.6 25.6-25.6h97.781l-42.667-256h-106.314c-14.138 0-25.6-11.461-25.6-25.6s11.462-25.6 25.6-25.6h97.781l-20.632-123.792c-2.325-13.946 7.098-27.134 21.043-29.459 1.426-0.237 2.842-0.354 4.24-0.354 12.288 0 23.133 8.875 25.221 21.397l22.034 132.208h204.096l-20.634-123.792c-2.325-13.946 7.098-27.134 21.043-29.459 1.424-0.237 2.84-0.354 4.238-0.354 12.288 0 23.133 8.875 25.221 21.397l22.035 132.208h106.314c14.139 0 25.6 11.461 25.6 25.6s-11.461 25.6-25.6 25.6h-97.781l42.667 256h106.314c14.139 0 25.6 11.462 25.6 25.6s-11.461 25.6-25.6 25.6zM439.114 358.4h-204.094l42.667 256h204.094l-42.667-256z" />
<glyph unicode="&#x24;" glyph-name="uni24" horiz-adv-x="563" d="M435.299 460.512c-41.55 24.238-95.406 37.702-147.49 50.723-115.363 28.842-185.41 51.899-185.41 128.765 0 17.578 3.72 51.198 28.629 78.874 29.338 32.598 79.997 49.126 150.571 49.126 117.798 0 189.96-46.48 190.6-46.901 11.763-7.842 27.656-4.664 35.501 7.101 7.843 11.763 4.664 27.658-7.101 35.501-3.176 2.118-74.501 48.76-193.4 54.842v77.458c0 14.138-11.461 25.6-25.6 25.6-14.138 0-25.6-11.462-25.6-25.6v-77.51c-72.832-4.078-127.606-26.006-163.029-65.363-36.344-40.384-41.771-88.211-41.771-113.126 0-55.056 25.806-98.024 76.701-127.712 41.55-24.238 95.406-37.702 147.491-50.723 115.362-28.842 185.408-51.899 185.408-128.765 0-17.578-3.718-51.198-28.629-78.875-29.338-32.597-79.997-49.125-150.571-49.125-117.274 0-189.315 46.067-190.661 46.941-11.757 7.792-27.61 4.605-35.44-7.141-7.842-11.765-4.664-27.658 7.101-35.501 3.178-2.118 74.501-48.762 193.4-54.843v-77.456c0-14.139 11.462-25.6 25.6-25.6 14.139 0 25.6 11.461 25.6 25.6v77.51c72.83 4.078 127.608 26.008 163.029 65.365 36.344 40.382 41.771 88.21 41.771 113.125 0 55.054-25.806 98.024-76.701 127.712z" />
<glyph unicode="&#x25;" glyph-name="uni25" horiz-adv-x="717" d="M127.981 153.598c-5.346 0-10.734 1.667-15.341 5.122-11.31 8.483-13.603 24.528-5.12 35.838l460.8 614.4c8.482 11.31 24.53 13.605 35.838 5.12 11.31-8.483 13.603-24.53 5.12-35.84l-460.8-614.4c-5.027-6.704-12.715-10.24-20.498-10.24zM537.6 153.6c-55.090 0-92.939 19.834-112.498 58.952-15.502 31.005-15.502 67.789-15.502 94.648s0 63.643 15.502 94.648c19.558 39.118 57.408 58.952 112.498 58.952s92.939-19.834 112.499-58.952c15.502-31.005 15.502-67.789 15.502-94.648s0-63.643-15.502-94.648c-19.56-39.118-57.41-58.952-112.499-58.952zM537.6 409.6c-71.454 0-76.8-40.546-76.8-102.4s5.346-102.4 76.8-102.4c71.456 0 76.802 40.546 76.802 102.4s-5.346 102.4-76.802 102.4zM179.2 512c-55.090 0-92.939 19.834-112.498 58.952-15.502 31.005-15.502 67.789-15.502 94.648s0 63.643 15.502 94.648c19.558 39.118 57.408 58.952 112.498 58.952s92.939-19.834 112.499-58.95c15.502-31.005 15.502-67.79 15.502-94.65s0-63.643-15.502-94.65c-19.56-39.117-57.41-58.95-112.499-58.95zM179.2 768c-71.454 0-76.8-40.544-76.8-102.4s5.346-102.4 76.8-102.4c71.456 0 76.802 40.544 76.802 102.4s-5.346 102.4-76.802 102.4z" />
<glyph unicode="&#x26;" glyph-name="uni26" horiz-adv-x="563" d="M486.4 204.8h-37.091l-16.208 25.662c15.49 26.245 24.358 59.584 26.898 100.762l0.048 0.787v154.389c0 14.138-11.461 25.6-25.6 25.6s-25.6-11.462-25.6-25.6v-152.797c-1.264-19.765-4.070-36.728-8.533-51.227l-246.627 390.494c0.787 32.454 6.992 54.45 19.352 68.869 15.144 17.67 42.282 26.261 82.962 26.261 36.237 0 62.491-7.131 78.032-21.194 13.37-12.099 20.798-30.53 23.373-57.997 1.318-14.077 13.814-24.41 27.877-23.099 14.077 1.32 24.419 13.8 23.099 27.878-7.925 84.523-57.768 125.611-152.381 125.611-56.525 0-96.378-14.438-121.837-44.139-21.67-25.283-31.763-60.064-31.763-109.461 0-4.838 1.371-9.579 3.957-13.67l62.614-99.139c-35.323-10.099-62.125-27.704-81.344-53.299-24.512-32.646-36.427-78.795-36.427-141.091 0-72.73 15.602-122.205 49.099-155.701s82.971-49.099 155.701-49.099c63.443 0 108.786 11.77 141.766 36.933l15.79-25.003c4.688-7.427 12.859-11.93 21.643-11.93h51.2c14.139 0 25.6 11.461 25.6 25.6s-11.461 25.6-25.6 25.6zM256 204.8c-58.261 0-96.234 10.835-119.499 34.101s-34.101 61.238-34.101 119.499c0 50.8 8.562 86.896 26.17 110.347 14.792 19.699 37.034 32.062 69.259 38.35l172.424-273.005c-23.334-19.707-60.712-29.293-114.253-29.293z" />
<glyph unicode="&#x27;" glyph-name="uni27" horiz-adv-x="154" d="M76.8 665.6c-14.138 0-25.6 11.461-25.6 25.6v153.6c0 14.139 11.462 25.6 25.6 25.6s25.6-11.461 25.6-25.6v-153.6c0-14.139-11.461-25.6-25.6-25.6z" />
<glyph unicode="&#x28;" glyph-name="uni28" horiz-adv-x="307" d="M230.411 0c-7.214 0-14.386 3.034-19.448 8.939-1.653 1.928-40.904 48.099-80.261 126.813-36.269 72.538-79.502 187.813-79.502 325.048 0 137.237 43.234 252.51 79.502 325.048 39.357 78.714 78.608 124.885 80.261 126.811 9.202 10.734 25.365 11.978 36.098 2.776 10.734-9.2 11.978-25.363 2.776-36.098-0.352-0.413-37.488-44.294-74.059-117.83-33.474-67.309-73.378-174.12-73.378-300.707 0-243.71 145.963-416.821 147.437-418.539 9.202-10.736 7.958-26.898-2.776-36.099-4.827-4.136-10.754-6.162-16.65-6.162z" />
<glyph unicode="&#x29;" glyph-name="uni29" horiz-adv-x="307" d="M76.789 0c7.214 0 14.386 3.034 19.448 8.939 1.653 1.928 40.904 48.099 80.261 126.813 36.269 72.538 79.502 187.813 79.502 325.048 0 137.237-43.234 252.51-79.502 325.048-39.357 78.714-78.608 124.885-80.261 126.811-9.202 10.734-25.365 11.978-36.098 2.776-10.734-9.2-11.978-25.363-2.776-36.098 0.352-0.413 37.488-44.294 74.059-117.83 33.474-67.309 73.378-174.12 73.378-300.707 0-243.71-145.963-416.821-147.437-418.539-9.202-10.736-7.958-26.898 2.776-36.099 4.827-4.136 10.754-6.162 16.65-6.162z" />
<glyph unicode="&#x2a;" glyph-name="uni2a" horiz-adv-x="461" d="M398.2 712.501l-121.648 81.099 121.648 81.099c11.765 7.843 14.944 23.738 7.101 35.501-7.843 11.765-23.738 14.944-35.501 7.101l-113.8-75.867v105.766c0 14.138-11.462 25.6-25.6 25.6s-25.6-11.462-25.6-25.6v-105.766l-113.8 75.867c-11.765 7.84-27.658 4.664-35.501-7.101-7.842-11.763-4.664-27.658 7.101-35.501l121.648-81.099-121.648-81.099c-11.765-7.843-14.942-23.738-7.101-35.501 4.933-7.4 13.051-11.402 21.325-11.402 4.878 0 9.813 1.392 14.176 4.301l113.8 75.867v-105.766c0-14.138 11.462-25.6 25.6-25.6s25.6 11.462 25.6 25.6v105.766l113.8-75.867c4.365-2.909 9.298-4.301 14.176-4.301 8.272 0 16.39 4.003 21.323 11.402 7.845 11.763 4.666 27.658-7.099 35.501z" />
<glyph unicode="&#x2b;" glyph-name="uni2b" horiz-adv-x="563" d="M486.4 460.8h-179.2v179.2c0 14.138-11.461 25.6-25.6 25.6-14.138 0-25.6-11.462-25.6-25.6v-179.2h-179.2c-14.138 0-25.6-11.461-25.6-25.6s11.462-25.6 25.6-25.6h179.2v-179.2c0-14.139 11.462-25.6 25.6-25.6 14.139 0 25.6 11.461 25.6 25.6v179.2h179.2c14.139 0 25.6 11.461 25.6 25.6s-11.461 25.6-25.6 25.6z" />
<glyph unicode="&#x2c;" glyph-name="uni2c" horiz-adv-x="205" d="M153.6 230.4c0 14.139-11.461 25.6-25.6 25.6h-51.2c-14.138 0-25.6-11.461-25.6-25.6s11.462-25.6 25.6-25.6h24.408c-6.859-72.272-41.037-108.376-42.648-110.037l0.13 0.13c-4.627-4.634-7.49-11.029-7.49-18.093 0-14.139 11.462-25.6 25.6-25.6 7.075 0 13.478 2.87 18.112 7.509 2.494 2.498 58.688 60.074 58.688 171.691z" />
<glyph unicode="&#x2d;" glyph-name="uni2d" horiz-adv-x="358" d="M307.2 384c0-14.138-11.461-25.6-25.6-25.6h-204.8c-14.139 0-25.6 11.462-25.6 25.6s11.461 25.6 25.6 25.6h204.8c14.139 0 25.6-11.461 25.6-25.6z" />
<glyph unicode="&#x2e;" glyph-name="uni2e" horiz-adv-x="154" d="M76.8 153.6c-14.138 0-25.6 11.461-25.6 25.6v51.2c0 14.139 11.462 25.6 25.6 25.6s25.6-11.461 25.6-25.6v-51.2c0-14.139-11.461-25.6-25.6-25.6z" />
<glyph unicode="&#x2f;" glyph-name="uni2f" horiz-adv-x="410" d="M76.803 51.194c-2.685 0-5.413 0.426-8.099 1.32-13.413 4.47-20.662 18.968-16.19 32.381l256 768c4.469 13.413 18.965 20.664 32.381 16.19 13.413-4.47 20.662-18.968 16.19-32.381l-256-768c-3.574-10.726-13.563-17.51-24.282-17.51z" />
<glyph unicode="&#x30;" glyph-name="uni30" horiz-adv-x="563" d="M281.6 153.6c-84.912 0-144.349 29.058-181.709 88.832-33.219 53.15-48.691 130.672-48.691 243.968 0 113.294 15.472 190.818 48.691 243.968 37.36 59.774 96.797 88.832 181.709 88.832s144.35-29.058 181.709-88.832c33.219-53.15 48.691-130.674 48.691-243.968 0-113.296-15.472-190.818-48.691-243.968-37.358-59.774-96.797-88.832-181.709-88.832zM281.6 768c-66.731 0-110.674-20.581-138.291-64.768-27.528-44.043-40.909-114.97-40.909-216.832s13.381-172.787 40.909-216.832c27.618-44.187 71.56-64.768 138.291-64.768s110.674 20.581 138.291 64.768c27.528 44.045 40.909 114.97 40.909 216.832s-13.381 172.789-40.909 216.832c-27.618 44.187-71.56 64.768-138.291 64.768z" />
<glyph unicode="&#x31;" glyph-name="uni31" horiz-adv-x="256" d="M179.2 153.6c-14.139 0-25.6 11.461-25.6 25.6v552.597l-58.698-58.699c-9.998-9.997-26.206-9.997-36.205 0-9.997 9.998-9.997 26.206 0 36.205l102.4 102.4c7.32 7.32 18.331 9.512 27.899 5.549 9.566-3.962 15.803-13.298 15.803-23.651v-614.4c0-14.139-11.461-25.6-25.6-25.6z" />
<glyph unicode="&#x32;" glyph-name="uni32" horiz-adv-x="563" d="M486.4 153.6h-409.6c-14.138 0-25.6 11.461-25.6 25.6 0 92.686 26.022 161.15 79.552 209.304 46.221 41.578 104.634 61.328 161.125 80.429 46.35 15.67 90.13 30.474 121.131 55.778 20.515 16.746 47.792 46.917 47.792 115.29 0 45.749-11.182 76.002-35.192 95.21-27.581 22.064-74.686 32.79-144.008 32.79s-116.427-10.726-144.008-32.79c-24.010-19.208-35.192-49.461-35.192-95.21 0-14.138-11.462-25.6-25.6-25.6s-25.6 11.462-25.6 25.6c0 123.933 71.058 179.2 230.4 179.2s230.4-55.267 230.4-179.2c0-67.68-21.79-118.366-66.618-154.955-38.189-31.17-88.477-48.171-137.106-64.616-51.576-17.437-104.907-35.469-143.282-69.989-37.894-34.088-57.824-80.771-61.834-145.64h383.238c14.139 0 25.6-11.461 25.6-25.6s-11.461-25.6-25.6-25.6z" />
<glyph unicode="&#x33;" glyph-name="uni33" horiz-adv-x="563" d="M427.883 486.4c57.394 27.448 84.117 77.614 84.117 153.6 0 123.933-71.058 179.2-230.4 179.2-76.179 0-131.2-12.499-168.21-38.208-28.338-19.686-47.166-47.843-55.965-83.69-3.37-13.731 5.030-27.595 18.762-30.965 13.733-3.37 27.595 5.030 30.965 18.762 5.898 24.029 17.162 41.138 35.45 53.843 28.146 19.554 73.613 29.058 138.998 29.058 69.322 0 116.427-10.726 144.008-32.79 15.107-12.086 35.192-35.106 35.192-95.21s-20.085-83.123-35.192-95.21c-27.581-22.064-74.686-32.79-144.008-32.79h-51.2c-14.138 0-25.6-11.462-25.6-25.6s11.462-25.6 25.6-25.6h51.2c69.322 0 116.427-10.726 144.008-32.79 15.107-12.086 35.192-35.106 35.192-95.21s-20.085-83.123-35.192-95.21c-27.581-22.064-74.686-32.79-144.008-32.79-135.795 0-164.387 41.904-174.446 82.896-3.37 13.731-17.23 22.133-30.965 18.762-13.731-3.37-22.131-17.234-18.762-30.965 10.322-42.056 34.458-73.443 71.741-93.291 36.154-19.246 86.014-28.602 152.432-28.602 159.342 0 230.4 55.267 230.4 179.2 0 75.986-26.723 126.152-84.117 153.6z" />
<glyph unicode="&#x34;" glyph-name="uni34" horiz-adv-x="614" d="M435.2 153.6c-14.139 0-25.6 11.461-25.6 25.6v128h-332.8c-9.778 0-18.701 5.568-22.997 14.354-4.296 8.782-3.213 19.245 2.79 26.965l358.4 460.8c6.715 8.634 18.171 12.048 28.515 8.498s17.291-13.28 17.291-24.216v-435.2h76.8c14.139 0 25.6-11.461 25.6-25.6s-11.461-25.6-25.6-25.6h-76.8v-128c0-14.139-11.461-25.6-25.6-25.6zM129.142 358.4h280.458v360.587l-280.458-360.587z" />
<glyph unicode="&#x35;" glyph-name="uni35" horiz-adv-x="563" d="M281.6 153.6c-123.254 0-192.77 37.675-218.771 118.566-4.326 13.461 3.077 27.88 16.538 32.206 13.461 4.331 27.878-3.078 32.206-16.538 9.077-28.242 24.894-47.574 49.774-60.845 27.995-14.933 67.33-22.19 120.253-22.19 68.574 0 115.197 12.402 142.533 37.915 25.016 23.349 36.667 60.109 36.667 115.685s-11.651 92.338-36.667 115.685c-27.336 25.514-73.958 37.915-142.533 37.915h-153.6c-7.234 0-14.128 3.059-18.981 8.422s-7.211 12.53-6.491 19.726l25.6 256c1.307 13.085 12.32 23.051 25.472 23.051h332.8c14.139 0 25.6-11.462 25.6-25.6s-11.461-25.6-25.6-25.6h-309.632l-20.48-204.8h125.312c159.342 0 230.4-63.163 230.4-204.8s-71.058-204.8-230.4-204.8z" />
<glyph unicode="&#x36;" glyph-name="uni36divbrdiv" horiz-adv-x="563" d="M281.6 563.2c-82.733 0-141.656-17.037-179.2-53.235v104.435c0 55.576 11.651 92.336 36.667 115.685 27.336 25.514 73.958 37.915 142.533 37.915 53.307 0 92.843-7.366 120.867-22.518 24.904-13.467 40.662-33.128 49.587-61.87 4.192-13.501 18.531-21.051 32.040-16.858 13.501 4.194 21.048 18.538 16.856 32.040-25.507 82.146-95.206 120.406-219.35 120.406-159.342 0-230.4-63.163-230.4-204.8v-256c0-141.637 71.058-204.8 230.4-204.8s230.4 63.163 230.4 204.8-71.058 204.8-230.4 204.8zM424.133 242.715c-27.336-25.514-73.958-37.915-142.533-37.915s-115.197 12.402-142.533 37.915c-25.016 23.349-36.667 60.109-36.667 115.685s11.651 92.338 36.667 115.685c27.334 25.514 73.958 37.915 142.533 37.915s115.197-12.402 142.533-37.915c25.016-23.347 36.667-60.109 36.667-115.685s-11.651-92.336-36.667-115.685z" />
<glyph unicode="&#x37;" glyph-name="uni37" horiz-adv-x="563" d="M179.181 153.594c-3.848 0-7.754 0.872-11.429 2.709-12.646 6.322-17.771 21.699-11.45 34.346l288.675 577.352h-368.178c-14.138 0-25.6 11.462-25.6 25.6s11.462 25.6 25.6 25.6h409.6c8.872 0 17.112-4.594 21.776-12.141s5.090-16.971 1.12-24.907l-307.2-614.4c-4.483-8.971-13.526-14.157-22.915-14.158z" />
<glyph unicode="&#x38;" glyph-name="uni38" horiz-adv-x="563" d="M427.883 486.4c57.394 27.448 84.117 77.614 84.117 153.6 0 123.933-71.058 179.2-230.4 179.2s-230.4-55.267-230.4-179.2c0-75.986 26.723-126.152 84.117-153.6-57.394-27.448-84.117-77.614-84.117-153.6 0-123.933 71.058-179.2 230.4-179.2s230.4 55.267 230.4 179.2c0 75.986-26.723 126.152-84.117 153.6zM137.592 544.79c-15.107 12.086-35.192 35.106-35.192 95.21s20.085 83.123 35.192 95.21c27.581 22.064 74.686 32.79 144.008 32.79s116.427-10.726 144.008-32.79c15.107-12.086 35.192-35.106 35.192-95.21s-20.085-83.123-35.192-95.21c-27.581-22.064-74.686-32.79-144.008-32.79s-116.427 10.726-144.008 32.79zM425.608 237.59c-27.581-22.064-74.686-32.79-144.008-32.79s-116.427 10.726-144.008 32.79c-15.107 12.086-35.192 35.106-35.192 95.21s20.085 83.123 35.192 95.21c27.581 22.064 74.686 32.79 144.008 32.79s116.427-10.726 144.008-32.79c15.107-12.086 35.192-35.106 35.192-95.21s-20.085-83.123-35.192-95.21z" />
<glyph unicode="&#x39;" glyph-name="uni39" horiz-adv-x="563" d="M281.6 819.2c-159.342 0-230.4-63.163-230.4-204.8s71.058-204.8 230.4-204.8c82.733 0 141.656 17.037 179.2 53.235v-104.435c0-55.576-11.651-92.336-36.667-115.685-27.336-25.514-73.958-37.915-142.533-37.915-53.307 0-92.843 7.366-120.867 22.518-24.904 13.467-40.662 33.126-49.589 61.872-4.194 13.501-18.538 21.045-32.040 16.856-13.502-4.194-21.050-18.538-16.856-32.040 25.509-82.147 95.21-120.406 219.352-120.406 159.342 0 230.4 63.163 230.4 204.8v256c0 141.637-71.058 204.8-230.4 204.8zM424.133 498.715c-27.336-25.514-73.958-37.915-142.533-37.915s-115.198 12.402-142.533 37.915c-25.016 23.349-36.667 60.107-36.667 115.685s11.651 92.336 36.667 115.685c27.334 25.514 73.958 37.915 142.533 37.915s115.197-12.402 142.533-37.915c25.016-23.349 36.667-60.107 36.667-115.685s-11.651-92.336-36.667-115.685z" />
<glyph unicode="&#x3a;" glyph-name="uni3a" horiz-adv-x="205" d="M76.8 512c-14.138 0-25.6 11.461-25.6 25.6v51.2c0 14.139 11.462 25.6 25.6 25.6s25.6-11.461 25.6-25.6v-51.2c0-14.139-11.461-25.6-25.6-25.6zM76.8 153.6c-14.138 0-25.6 11.461-25.6 25.6v51.2c0 14.139 11.462 25.6 25.6 25.6s25.6-11.461 25.6-25.6v-51.2c0-14.139-11.461-25.6-25.6-25.6z" />
<glyph unicode="&#x3b;" glyph-name="uni3b" horiz-adv-x="205" d="M153.6 230.4c0 14.139-11.461 25.6-25.6 25.6h-51.2c-14.138 0-25.6-11.461-25.6-25.6s11.462-25.6 25.6-25.6h24.408c-6.859-72.272-41.037-108.376-42.648-110.037l0.13 0.13c-4.627-4.634-7.49-11.029-7.49-18.093 0-14.139 11.462-25.6 25.6-25.6 7.075 0 13.478 2.87 18.112 7.509 2.494 2.498 58.688 60.074 58.688 171.691zM128 512c-14.138 0-25.6 11.461-25.6 25.6v51.2c0 14.139 11.462 25.6 25.6 25.6 14.139 0 25.6-11.461 25.6-25.6v-51.2c0-14.139-11.461-25.6-25.6-25.6z" />
<glyph unicode="&#x3c;" glyph-name="uni3c" horiz-adv-x="563" d="M486.379 204.794c-3.846 0-7.754 0.872-11.429 2.709l-409.6 204.8c-8.672 4.336-14.15 13.2-14.15 22.898s5.478 18.562 14.152 22.898l409.6 204.8c12.65 6.32 28.026 1.195 34.346-11.45 6.323-12.645 1.197-28.022-11.448-34.346l-363.806-181.902 363.805-181.902c12.645-6.322 17.771-21.699 11.448-34.346-4.483-8.971-13.526-14.157-22.917-14.158z" />
<glyph unicode="&#x3d;" glyph-name="uni3d" horiz-adv-x="563" d="M486.4 307.2h-409.6c-14.138 0-25.6 11.461-25.6 25.6s11.462 25.6 25.6 25.6h409.6c14.139 0 25.6-11.461 25.6-25.6s-11.461-25.6-25.6-25.6zM486.4 512h-409.6c-14.138 0-25.6 11.462-25.6 25.6s11.462 25.6 25.6 25.6h409.6c14.139 0 25.6-11.462 25.6-25.6s-11.461-25.6-25.6-25.6z" />
<glyph unicode="&#x3e;" glyph-name="uni3e" horiz-adv-x="563" d="M76.821 204.794c-9.392 0-18.432 5.186-22.918 14.158-6.323 12.645-1.197 28.024 11.45 34.346l363.805 181.902-363.805 181.902c-12.646 6.323-17.771 21.701-11.45 34.346 6.323 12.645 21.701 17.773 34.346 11.45l409.6-204.8c8.674-4.336 14.152-13.2 14.152-22.898s-5.478-18.562-14.152-22.898l-409.6-204.8c-3.674-1.837-7.581-2.707-11.427-2.709z" />
<glyph unicode="&#x3f;" glyph-name="uni3f" horiz-adv-x="512" d="M230.4 307.2c-14.138 0-25.6 11.461-25.6 25.6v102.4c0 14.139 11.462 25.6 25.6 25.6h25.6c58.261 0 96.234 10.835 119.499 34.101s34.101 61.238 34.101 119.499-10.835 96.232-34.101 119.499c-23.266 23.266-61.238 34.101-119.499 34.101-53.882 0-91.402-9.702-114.704-29.664-23.070-19.763-35.206-51.51-38.194-99.912-0.87-14.112-13.006-24.827-27.128-23.974-14.112 0.87-24.845 13.016-23.974 27.128 3.843 62.294 22.157 106.664 55.989 135.643 33.434 28.64 80.466 41.979 148.011 41.979 72.73 0 122.205-15.602 155.701-49.099 33.498-33.496 49.099-82.971 49.099-155.701s-15.602-122.205-49.099-155.701c-33.496-33.498-82.971-49.099-155.701-49.099v-76.8c0-14.139-11.462-25.6-25.6-25.6zM230.4 153.6c-14.138 0-25.6 11.461-25.6 25.6v51.2c0 14.139 11.462 25.6 25.6 25.6s25.6-11.461 25.6-25.6v-51.2c0-14.139-11.462-25.6-25.6-25.6z" />
<glyph unicode="&#x40;" glyph-name="uni40" horiz-adv-x="870" d="M718.901 667.701c-66.552 66.554-162.002 100.299-283.701 100.299s-217.149-33.746-283.701-100.299c-66.554-66.552-100.299-162.003-100.299-283.701s33.746-217.149 100.299-283.701c66.552-66.554 162.003-100.299 283.701-100.299 115.237 0 207.158 30.381 273.205 90.299 10.472 9.501 11.259 25.691 1.762 36.163-9.501 10.472-25.693 11.259-36.162 1.76-56.336-51.11-136.682-77.022-238.805-77.022-107.626 0-190.896 28.701-247.499 85.301-56.6 56.603-85.301 139.874-85.301 247.499s28.701 190.896 85.301 247.499c56.603 56.6 139.874 85.301 247.499 85.301s190.896-28.701 247.499-85.301c56.6-56.603 85.301-139.874 85.301-247.499v-51.2c0-42.349-34.451-76.8-76.8-76.8s-76.8 34.451-76.8 76.8v204.8c0 14.138-11.461 25.6-25.6 25.6s-25.6-11.462-25.6-25.6v-21.456c-31.742 30.821-75.79 47.056-128 47.056-55.602 0-101.949-18.411-134.030-53.245-29.55-32.086-45.17-75.64-45.17-125.955s15.619-93.869 45.17-125.955c32.082-34.832 78.429-53.245 134.030-53.245s101.949 18.413 134.032 53.245c3.635 3.947 7.058 8.070 10.267 12.355 21.931-39.101 63.768-65.6 111.701-65.6 70.579 0 128 57.421 128 128v51.2c0 121.698-33.746 217.149-100.299 283.701zM435.2 256c-40.914 0-74.238 12.701-96.37 36.731-20.693 22.467-31.63 54.029-31.63 91.269s10.938 68.802 31.63 91.269c22.131 24.030 55.456 36.731 96.37 36.731s74.238-12.701 96.368-36.731c20.694-22.467 31.632-54.029 31.632-91.269s-10.938-68.802-31.632-91.269c-22.13-24.030-55.454-36.731-96.368-36.731z" />
<glyph unicode="&#x41;" glyph-name="uni41" horiz-adv-x="666" d="M612.432 189.046l-256 614.4c-3.976 9.539-13.298 15.754-23.632 15.754s-19.656-6.214-23.632-15.754l-256-614.4c-5.438-13.051 0.733-28.038 13.784-33.478 13.050-5.437 28.040 0.734 33.477 13.784l78.771 189.048h307.2l78.768-189.046c4.098-9.832 13.616-15.76 23.642-15.76 3.282 0 6.618 0.634 9.835 1.974 13.053 5.44 19.224 20.427 13.787 33.478zM200.533 409.6l132.267 317.44 132.266-317.44h-264.533z" />
<glyph unicode="&#x42;" glyph-name="uni42" horiz-adv-x="614" d="M307.2 153.6h-230.4c-14.138 0-25.6 11.461-25.6 25.6v614.4c0 14.138 11.462 25.6 25.6 25.6h204.8c159.342 0 230.4-55.267 230.4-179.2 0-66.309-20.336-112.957-63.656-142.003 17.131-4.762 31.755-10.816 44.555-18.283 47.306-27.597 70.301-75.651 70.301-146.914s-22.995-119.317-70.301-146.912c-38.797-22.632-94.333-32.288-185.699-32.288zM102.4 204.8h204.8c81.664 0 129.485 7.57 159.901 25.312 20.904 12.194 44.899 34.886 44.899 102.688s-23.995 90.494-44.899 102.688c-30.416 17.742-78.237 25.312-159.901 25.312v0.507c-8.266-0.339-16.798-0.507-25.6-0.507h-179.2v-256zM102.4 512h179.2c69.322 0 116.427 10.726 144.008 32.79 24.010 19.208 35.192 49.461 35.192 95.21s-11.182 76.002-35.192 95.21c-27.581 22.064-74.686 32.79-144.008 32.79h-179.2v-256z" />
<glyph unicode="&#x43;" glyph-name="uni43" horiz-adv-x="666" d="M384 153.6c-108.958 0-192.566 28.363-248.502 84.299-55.936 55.934-84.298 139.542-84.298 248.501s28.362 192.566 84.298 248.502c55.936 55.936 139.544 84.298 248.502 84.298 91.707 0 165.701-20.126 219.923-59.821 11.408-8.352 13.886-24.37 5.534-35.778s-24.368-13.886-35.778-5.534c-45.261 33.133-109.078 49.933-189.68 49.933-94.886 0-166.312-23.317-212.298-69.302s-69.302-117.413-69.302-212.298c0-94.886 23.317-166.312 69.302-212.299 45.986-45.984 117.411-69.301 212.298-69.301 80.602 0 144.419 16.8 189.68 49.933 11.408 8.352 27.429 5.874 35.778-5.534 8.352-11.408 5.874-27.427-5.534-35.778-54.222-39.694-128.216-59.821-219.923-59.821z" />
<glyph unicode="&#x44;" glyph-name="uni44" horiz-adv-x="666" d="M281.6 153.6h-204.8c-14.138 0-25.6 11.461-25.6 25.6v614.4c0 14.138 11.462 25.6 25.6 25.6h204.8c108.958 0 192.566-28.362 248.501-84.298 55.936-55.936 84.299-139.544 84.299-248.502s-28.363-192.566-84.299-248.501-139.542-84.299-248.501-84.299zM102.4 204.8h179.2c94.886 0 166.312 23.317 212.299 69.301 45.984 45.987 69.301 117.413 69.301 212.299s-23.317 166.312-69.301 212.298c-45.987 45.986-117.413 69.302-212.299 69.302h-179.2v-563.2z" />
<glyph unicode="&#x45;" glyph-name="uni45" horiz-adv-x="614" d="M537.6 204.8h-435.2v256h384c14.139 0 25.6 11.462 25.6 25.6s-11.461 25.6-25.6 25.6h-384v256h435.2c14.139 0 25.6 11.462 25.6 25.6s-11.461 25.6-25.6 25.6h-460.8c-14.138 0-25.6-11.462-25.6-25.6v-614.4c0-14.139 11.462-25.6 25.6-25.6h460.8c14.139 0 25.6 11.461 25.6 25.6s-11.461 25.6-25.6 25.6z" />
<glyph unicode="&#x46;" glyph-name="uni46" horiz-adv-x="614" d="M537.6 819.2h-460.8c-14.138 0-25.6-11.462-25.6-25.6v-614.4c0-14.139 11.462-25.6 25.6-25.6s25.6 11.461 25.6 25.6v281.6h384c14.139 0 25.6 11.462 25.6 25.6s-11.461 25.6-25.6 25.6h-384v256h435.2c14.139 0 25.6 11.462 25.6 25.6s-11.461 25.6-25.6 25.6z" />
<glyph unicode="&#x47;" glyph-name="uni47" horiz-adv-x="666" d="M384 153.6c-108.958 0-192.566 28.363-248.501 84.299-55.938 55.934-84.299 139.542-84.299 248.501s28.362 192.566 84.299 248.502c55.934 55.936 139.542 84.298 248.501 84.298 91.706 0 165.699-20.126 219.923-59.819 11.408-8.352 13.886-24.37 5.534-35.779-8.352-11.408-24.37-13.885-35.778-5.534-45.261 33.133-109.080 49.933-189.68 49.933-94.885 0-166.312-23.317-212.299-69.302-45.984-45.986-69.301-117.413-69.301-212.298 0-94.886 23.317-166.312 69.301-212.299 45.987-45.984 117.414-69.301 212.299-69.301 74.566 0 134.768 14.379 179.202 42.766l-0.002 213.234h-76.8c-14.139 0-25.6 11.462-25.6 25.6s11.461 25.6 25.6 25.6h102.4c14.139 0 25.6-11.462 25.6-25.6l0.002-252.323c0-8.163-3.893-15.834-10.478-20.656-54.222-39.694-128.216-59.821-219.923-59.821z" />
<glyph unicode="&#x48;" glyph-name="uni48" horiz-adv-x="614" d="M537.6 819.2c-14.139 0-25.6-11.462-25.6-25.6v-281.6h-409.6v281.6c0 14.138-11.462 25.6-25.6 25.6s-25.6-11.462-25.6-25.6v-614.4c0-14.139 11.462-25.6 25.6-25.6s25.6 11.461 25.6 25.6v281.6h409.6v-281.6c0-14.139 11.461-25.6 25.6-25.6s25.6 11.461 25.6 25.6v614.4c0 14.138-11.461 25.6-25.6 25.6z" />
<glyph unicode="&#x49;" glyph-name="uni49" horiz-adv-x="154" d="M76.8 153.6c-14.138 0-25.6 11.461-25.6 25.6v614.4c0 14.138 11.462 25.6 25.6 25.6s25.6-11.462 25.6-25.6v-614.4c0-14.139-11.462-25.6-25.6-25.6z" />
<glyph unicode="&#x4a;" glyph-name="uni4a" horiz-adv-x="563" d="M256 153.6c-89.2 0-149.486 18.634-189.725 58.643-10.026 9.968-10.072 26.176-0.104 36.203s26.178 10.075 36.203 0.102c30.021-29.848 78.835-43.749 153.626-43.749 115.056 0 151.445 34.613 170.291 64.768 28.64 45.824 34.509 119.822 34.509 216.832v307.2c0 14.138 11.461 25.6 25.6 25.6s25.6-11.462 25.6-25.6v-307.2c0-108.843-7.075-187.622-42.291-243.968-37.877-60.605-105.786-88.832-213.709-88.832z" />
<glyph unicode="&#x4b;" glyph-name="uni4b" horiz-adv-x="563" d="M502.392 199.19l-359.013 287.21 359.013 287.21c11.040 8.834 12.83 24.942 3.998 35.982-8.834 11.042-24.942 12.826-35.982 3.998l-368.008-294.406v274.416c0 14.138-11.462 25.6-25.6 25.6s-25.6-11.462-25.6-25.6v-614.4c0-14.139 11.462-25.6 25.6-25.6s25.6 11.461 25.6 25.6v274.416l368.008-294.406c4.72-3.776 10.366-5.611 15.976-5.611 7.509 0 14.95 3.29 20.006 9.61 8.832 11.040 7.043 27.15-3.998 35.982z" />
<glyph unicode="&#x4c;" glyph-name="uni4c" horiz-adv-x="614" d="M537.6 153.6h-460.8c-14.138 0-25.6 11.461-25.6 25.6v614.4c0 14.138 11.462 25.6 25.6 25.6s25.6-11.462 25.6-25.6v-588.8h435.2c14.139 0 25.6-11.461 25.6-25.6s-11.461-25.6-25.6-25.6z" />
<glyph unicode="&#x4d;" glyph-name="uni4d" horiz-adv-x="870" d="M793.568 153.595c-12.288 0-23.133 8.874-25.221 21.395l-87.763 526.576-221.752-532.211c-3.976-9.541-13.298-15.755-23.632-15.755s-19.656 6.214-23.632 15.755l-221.754 532.211-87.763-526.576c-2.323-13.946-15.502-23.366-29.461-21.042-13.946 2.323-23.366 15.514-21.043 29.461l102.4 614.4c1.877 11.259 10.979 19.915 22.318 21.222 11.338 1.306 22.173-5.050 26.563-15.586l232.371-557.686 232.368 557.686c4.39 10.538 15.229 16.896 26.565 15.586 11.339-1.307 20.442-9.965 22.318-21.222l102.4-614.4c2.325-13.947-7.098-27.138-21.042-29.461-1.426-0.238-2.843-0.352-4.242-0.354z" />
<glyph unicode="&#x4e;" glyph-name="uni4e" horiz-adv-x="614" d="M537.603 153.598c-7.904 0-15.555 3.67-20.483 10.242l-414.72 552.96v-537.6c0-14.139-11.462-25.6-25.6-25.6s-25.6 11.461-25.6 25.6v614.4c0 11.019 7.051 20.802 17.504 24.286 10.453 3.486 21.965-0.11 28.574-8.926l414.722-552.96v537.6c0 14.138 11.461 25.6 25.6 25.6s25.6-11.462 25.6-25.6v-614.4c0-11.019-7.051-20.802-17.504-24.286-2.662-0.886-5.394-1.315-8.093-1.315z" />
<glyph unicode="&#x4f;" glyph-name="uni4f" horiz-adv-x="717" d="M358.4 153.6c-97.602 0-173.867 28.562-226.677 84.891-53.43 56.994-80.523 140.403-80.523 247.909s27.093 190.915 80.523 247.909c52.81 56.33 129.075 84.891 226.677 84.891s173.867-28.562 226.677-84.891c53.43-56.994 80.523-140.403 80.523-247.909s-27.093-190.915-80.523-247.909c-52.81-56.33-129.075-84.891-226.677-84.891zM358.4 768c-82.885 0-146.581-23.117-189.323-68.709-44.243-47.192-66.677-118.819-66.677-212.891s22.434-165.699 66.677-212.891c42.742-45.592 106.438-68.709 189.323-68.709s146.581 23.117 189.323 68.709c44.243 47.192 66.677 118.819 66.677 212.891s-22.434 165.699-66.677 212.891c-42.742 45.592-106.438 68.709-189.323 68.709z" />
<glyph unicode="&#x50;" glyph-name="uni50" horiz-adv-x="563" d="M76.8 153.6c-14.138 0-25.6 11.461-25.6 25.6v614.4c0 14.138 11.462 25.6 25.6 25.6h204.8c159.342 0 230.4-55.267 230.4-179.2s-71.058-179.2-230.4-179.2h-179.2v-281.6c0-14.139-11.462-25.6-25.6-25.6zM102.4 512h179.2c69.322 0 116.427 10.726 144.008 32.79 24.010 19.208 35.192 49.461 35.192 95.21s-11.182 76.002-35.192 95.21c-27.581 22.064-74.686 32.79-144.008 32.79h-179.2v-256z" />
<glyph unicode="&#x51;" glyph-name="uni51" horiz-adv-x="717" d="M585.077 734.309c-52.81 56.33-129.075 84.891-226.677 84.891s-173.867-28.562-226.677-84.891c-53.43-56.994-80.523-140.403-80.523-247.909s27.093-190.915 80.523-247.909c48.382-51.606 116.464-79.888 202.592-84.27 3.718-30.352 14.374-57.034 31.877-79.538 17.555-22.568 41.685-40.539 71.723-53.413 49.066-21.029 97.642-21.27 99.685-21.27 14.139 0 25.6 11.461 25.6 25.6s-11.461 25.6-25.6 25.6c-0.395 0-40.003 0.195-79.515 17.13-41.685 17.866-65.442 46.157-72.114 86.069 84.485 4.962 151.378 33.181 199.106 84.093 53.43 56.994 80.523 140.403 80.523 247.909s-27.093 190.915-80.523 247.909zM547.723 273.509c-42.742-45.592-106.438-68.709-189.323-68.709-82.883 0-146.581 23.117-189.323 68.709-44.243 47.192-66.677 118.819-66.677 212.891s22.434 165.699 66.677 212.891c42.742 45.592 106.44 68.709 189.323 68.709 82.885 0 146.581-23.117 189.323-68.709 44.243-47.192 66.677-118.819 66.677-212.891s-22.434-165.699-66.677-212.891z" />
<glyph unicode="&#x52;" glyph-name="uni52" horiz-adv-x="563" d="M507.699 193.4l-179.466 269.2c126.638 10.382 183.766 66.291 183.766 177.4 0 123.933-71.058 179.2-230.4 179.2h-204.8c-14.138 0-25.6-11.462-25.6-25.6v-614.4c0-14.139 11.462-25.6 25.6-25.6s25.6 11.461 25.6 25.6v281.6h165.499l197.2-295.8c4.933-7.4 13.050-11.403 21.323-11.403 4.88 0 9.813 1.394 14.176 4.302 11.766 7.843 14.946 23.736 7.101 35.501zM102.4 768h179.2c69.322 0 116.427-10.726 144.008-32.79 24.010-19.208 35.192-49.461 35.192-95.21s-11.182-76.002-35.192-95.21c-27.581-22.064-74.686-32.79-144.008-32.79h-179.2v256z" />
<glyph unicode="&#x53;" glyph-name="uni53" horiz-adv-x="563" d="M281.6 153.6c-134.208 0-215.6 53.234-219 55.501-11.765 7.842-14.942 23.736-7.101 35.501 7.83 11.746 23.683 14.933 35.44 7.141 1.346-0.875 73.387-46.942 190.661-46.942 70.574 0 121.234 16.528 150.571 49.125 24.91 27.677 28.629 61.298 28.629 78.875 0 76.866-70.046 99.923-185.408 128.765-52.083 13.021-105.939 26.485-147.491 50.723-50.894 29.688-76.701 72.656-76.701 127.712 0 24.915 5.427 72.742 41.771 113.126 39.461 43.843 102.923 66.074 188.629 66.074 134.208 0 215.602-53.234 219-55.499 11.765-7.843 14.944-23.738 7.101-35.501-7.843-11.765-23.738-14.942-35.501-7.101-0.64 0.421-72.802 46.901-190.6 46.901-70.574 0-121.234-16.528-150.571-49.126-24.909-27.675-28.629-61.296-28.629-78.874 0-76.866 70.046-99.923 185.408-128.765 52.083-13.021 105.939-26.485 147.49-50.723 50.896-29.688 76.702-72.658 76.702-127.712 0-24.915-5.427-72.742-41.771-113.125-39.461-43.843-102.925-66.075-188.629-66.075z" />
<glyph unicode="&#x54;" glyph-name="uni54" horiz-adv-x="563" d="M486.4 819.2h-409.6c-14.138 0-25.6-11.462-25.6-25.6s11.462-25.6 25.6-25.6h179.2v-588.8c0-14.139 11.462-25.6 25.6-25.6s25.6 11.461 25.6 25.6v588.8h179.2c14.139 0 25.6 11.462 25.6 25.6s-11.461 25.6-25.6 25.6z" />
<glyph unicode="&#x55;" glyph-name="uni55" horiz-adv-x="614" d="M307.2 153.6c-107.923 0-175.83 28.227-213.709 88.832-35.216 56.346-42.291 135.125-42.291 243.968v307.2c0 14.138 11.462 25.6 25.6 25.6s25.6-11.462 25.6-25.6v-307.2c0-97.010 5.869-171.008 34.509-216.832 35.878-57.405 109.854-64.768 170.291-64.768 115.056 0 151.443 34.613 170.291 64.768 28.64 45.824 34.509 119.822 34.509 216.832v307.2c0 14.138 11.461 25.6 25.6 25.6s25.6-11.462 25.6-25.6v-307.2c0-108.843-7.075-187.622-42.291-243.968-37.877-60.605-105.786-88.832-213.709-88.832z" />
<glyph unicode="&#x56;" glyph-name="uni56" horiz-adv-x="666" d="M332.8 153.6c-10.334 0-19.656 6.214-23.632 15.754l-256 614.4c-5.438 13.051 0.733 28.038 13.784 33.477 13.050 5.437 28.038-0.733 33.477-13.784l232.371-557.686 232.368 557.686c5.437 13.050 20.416 19.224 33.478 13.784 13.050-5.437 19.222-20.426 13.784-33.477l-256-614.4c-3.974-9.539-13.296-15.754-23.63-15.754z" />
<glyph unicode="&#x57;" glyph-name="uni57" horiz-adv-x="870" d="M639.992 153.6c-10.978 0-20.784 7.021-24.278 17.504l-180.514 541.542-180.514-541.542c-3.598-10.798-13.928-17.933-25.267-17.486-11.373 0.437-21.093 8.33-23.854 19.371l-153.6 614.4c-3.429 13.715 4.91 27.614 18.627 31.045 13.717 3.426 27.616-4.91 31.045-18.627l132.278-529.114 176.998 531.003c3.485 10.453 13.267 17.504 24.286 17.504s20.802-7.051 24.286-17.504l177-531 132.278 529.114c3.43 13.715 17.328 22.059 31.045 18.627 13.715-3.43 22.054-17.33 18.627-31.045l-153.6-614.4c-2.762-11.042-12.48-18.934-23.853-19.371-0.333-0.014-0.664-0.021-0.992-0.021z" />
<glyph unicode="&#x58;" glyph-name="uni58" horiz-adv-x="614" d="M339.2 486.4l218.88 291.84c8.483 11.31 6.19 27.357-5.12 35.84-11.309 8.485-27.358 6.192-35.838-5.12l-209.922-279.894-209.92 279.894c-8.482 11.312-24.53 13.603-35.84 5.12s-13.603-24.53-5.12-35.84l218.88-291.84-218.88-291.84c-8.483-11.31-6.192-27.357 5.12-35.838 4.605-3.454 9.995-5.122 15.341-5.122 7.782 0 15.47 3.536 20.499 10.242l209.92 279.893 209.92-279.894c5.030-6.706 12.715-10.242 20.499-10.242 5.344 0 10.734 1.669 15.339 5.122 11.31 8.483 13.603 24.528 5.12 35.838l-218.878 291.842z" />
<glyph unicode="&#x59;" glyph-name="uni59" horiz-adv-x="563" d="M499.101 815.827c-12.278 7.014-27.914 2.75-34.928-9.526l-182.573-319.501-182.573 319.501c-7.014 12.275-22.651 16.538-34.928 9.526-12.275-7.014-16.541-22.653-9.526-34.928l201.427-352.499v-249.2c0-14.139 11.462-25.6 25.6-25.6s25.6 11.461 25.6 25.6v249.202l201.427 352.498c7.014 12.275 2.749 27.914-9.526 34.928z" />
<glyph unicode="&#x5a;" glyph-name="uni5a" horiz-adv-x="614" d="M537.6 153.6h-460.8c-9.698 0-18.562 5.478-22.898 14.152-4.336 8.672-3.4 19.051 2.418 26.808l430.080 573.44h-409.6c-14.138 0-25.6 11.462-25.6 25.6s11.462 25.6 25.6 25.6h460.8c9.698 0 18.562-5.478 22.898-14.152 4.338-8.672 3.402-19.051-2.418-26.808l-430.080-573.44h409.6c14.139 0 25.6-11.461 25.6-25.6s-11.461-25.6-25.6-25.6z" />
<glyph unicode="&#x5b;" glyph-name="uni5b" horiz-adv-x="307" d="M230.4 0h-153.6c-14.138 0-25.6 11.461-25.6 25.6v870.4c0 14.138 11.462 25.6 25.6 25.6h153.6c14.139 0 25.6-11.462 25.6-25.6s-11.461-25.6-25.6-25.6h-128v-819.2h128c14.139 0 25.6-11.461 25.6-25.6s-11.461-25.6-25.6-25.6z" />
<glyph unicode="&#x5c;" glyph-name="uni5c" horiz-adv-x="410" d="M332.797 51.194c2.685 0 5.413 0.426 8.099 1.32 13.414 4.47 20.661 18.968 16.19 32.381l-256 768c-4.469 13.413-18.965 20.664-32.381 16.19-13.413-4.47-20.662-18.968-16.19-32.381l256-768c3.574-10.726 13.563-17.51 24.282-17.51z" />
<glyph unicode="&#x5d;" glyph-name="uni5d" horiz-adv-x="307" d="M76.8 0h153.6c14.138 0 25.6 11.461 25.6 25.6v870.4c0 14.138-11.462 25.6-25.6 25.6h-153.6c-14.139 0-25.6-11.462-25.6-25.6s11.461-25.6 25.6-25.6h128v-819.2h-128c-14.139 0-25.6-11.461-25.6-25.6s11.461-25.6 25.6-25.6z" />
<glyph unicode="&#x5e;" glyph-name="uni5e" horiz-adv-x="461" d="M384.024 511.997c-8.698 0-17.176 4.432-21.976 12.434l-131.648 219.411-131.648-219.413c-7.274-12.125-22.997-16.056-35.123-8.781-12.123 7.274-16.054 23-8.781 35.123l153.6 256c4.627 7.71 12.96 12.429 21.952 12.429s17.325-4.718 21.952-12.429l153.6-256c7.274-12.123 3.342-27.848-8.781-35.123-4.123-2.474-8.666-3.651-13.147-3.651z" />
<glyph unicode="&#x5f;" glyph-name="uni5f" horiz-adv-x="512" d="M512-25.6c0-14.138-11.461-25.6-25.6-25.6h-460.8c-14.139 0-25.6 11.462-25.6 25.6s11.461 25.6 25.6 25.6h460.8c14.139 0 25.6-11.461 25.6-25.6z" />
<glyph unicode="&#x60;" glyph-name="uni60" horiz-adv-x="307" d="M179.224 716.798c-8.274 0-16.39 4.002-21.323 11.402l-102.4 153.6c-7.842 11.763-4.664 27.658 7.101 35.501 11.766 7.842 27.659 4.662 35.501-7.101l102.4-153.6c7.843-11.763 4.664-27.658-7.101-35.501-4.366-2.909-9.299-4.301-14.178-4.301z" />
<glyph unicode="&#x61;" glyph-name="uni61" horiz-adv-x="512" d="M403.965 576.488c-22.557 18.747-57.774 37.912-147.965 37.912-61.11 0-106.598-7.562-139.064-23.117-12.75-6.109-18.134-21.398-12.026-34.149 6.11-12.752 21.398-18.136 34.149-12.026 25.408 12.174 63.658 18.091 116.941 18.091 58.773 0 93.235-7.802 115.235-26.088 26.174-21.754 38.365-62.272 38.365-127.512v-18.269c-29.362 13.003-75.347 18.269-153.6 18.269-60.051 0-105.666-8.211-139.448-25.102-42.754-21.378-65.352-56.958-65.352-102.898s22.598-81.52 65.352-102.898c33.782-16.891 79.397-25.102 139.448-25.102 80.037 0 125.712 4.978 154.843 17.733 3.322-10.286 12.965-17.733 24.357-17.733 14.139 0 25.6 11.461 25.6 25.6v230.4c0 81.629-18.061 134.658-56.835 166.888zM397.92 222.432c-21.878-15.627-87.338-17.632-141.92-17.632-51.198 0-90.411 6.627-116.552 19.698-25.275 12.638-37.048 30.782-37.048 57.102s11.773 44.464 37.048 57.102c26.141 13.070 65.354 19.698 116.552 19.698 53.243 0 117.29-2.029 140.123-17.845 11.528-7.986 13.477-21.723 13.477-58.955 0-37.651-0.957-51.509-11.68-59.168z" />
<glyph unicode="&#x62;" glyph-name="uni62" horiz-adv-x="563" d="M449.221 562.942c-38.088 34.626-92.918 51.458-167.621 51.458s-129.533-16.832-167.621-51.458c-4.062-3.693-7.918-7.574-11.579-11.643v242.301c0 14.138-11.462 25.6-25.6 25.6s-25.6-11.462-25.6-25.6v-614.4c0-14.139 11.462-25.6 25.6-25.6s25.6 11.461 25.6 25.6v37.501c3.662-4.067 7.518-7.95 11.579-11.642 38.088-34.627 92.918-51.459 167.621-51.459s129.533 16.832 167.621 51.458c42.243 38.403 62.779 96.936 62.779 178.942s-20.536 140.538-62.779 178.942zM414.779 242.942c-28.232-25.666-71.795-38.142-133.179-38.142s-104.947 12.477-133.179 38.142c-30.968 28.152-46.021 74.291-46.021 141.058s15.053 112.906 46.021 141.058c28.232 25.666 71.795 38.142 133.179 38.142s104.947-12.477 133.179-38.142c30.968-28.152 46.021-74.291 46.021-141.058s-15.053-112.906-46.021-141.058z" />
<glyph unicode="&#x63;" glyph-name="uni63" horiz-adv-x="512" d="M281.6 153.6c-74.702 0-129.533 16.832-167.621 51.458-42.245 38.403-62.779 96.936-62.779 178.942s20.534 140.538 62.779 178.942c38.088 34.626 92.918 51.458 167.621 51.458 77.173 0 133.245-18 171.419-55.027 10.149-9.843 10.397-26.051 0.554-36.2-9.843-10.147-26.050-10.397-36.2-0.552-28.152 27.306-72.563 40.579-135.773 40.579-61.384 0-104.947-12.477-133.179-38.142-30.968-28.152-46.021-74.291-46.021-141.058s15.053-112.906 46.021-141.058c28.232-25.666 71.795-38.142 133.179-38.142 63.211 0 107.624 13.275 135.776 40.582 10.147 9.84 26.355 9.597 36.2-0.554 9.843-10.149 9.595-26.355-0.554-36.2-38.176-37.029-94.25-55.029-171.422-55.029z" />
<glyph unicode="&#x64;" glyph-name="uni64" horiz-adv-x="563" d="M486.4 819.2c-14.139 0-25.6-11.462-25.6-25.6v-242.301c-3.661 4.067-7.518 7.95-11.579 11.643-38.088 34.626-92.918 51.458-167.621 51.458s-129.533-16.832-167.621-51.458c-42.245-38.405-62.779-96.936-62.779-178.942s20.534-140.539 62.779-178.942c38.088-34.626 92.918-51.458 167.621-51.458s129.533 16.832 167.621 51.458c4.061 3.693 7.918 7.574 11.579 11.642v-37.499c0-14.139 11.461-25.6 25.6-25.6s25.6 11.461 25.6 25.6v614.4c0 14.138-11.461 25.6-25.6 25.6zM414.779 242.942c-28.232-25.666-71.795-38.142-133.179-38.142s-104.947 12.477-133.179 38.142c-30.968 28.152-46.021 74.291-46.021 141.058s15.053 112.906 46.021 141.058c28.232 25.666 71.795 38.142 133.179 38.142s104.947-12.477 133.179-38.142c30.968-28.152 46.021-74.291 46.021-141.058s-15.053-112.906-46.021-141.058z" />
<glyph unicode="&#x65;" glyph-name="uni65" horiz-adv-x="563" d="M281.6 153.6c-74.702 0-129.533 16.832-167.621 51.458-42.245 38.403-62.779 96.936-62.779 178.942s20.534 140.538 62.779 178.942c38.088 34.626 92.918 51.458 167.621 51.458s129.533-16.832 167.621-51.458c42.243-38.405 62.779-96.936 62.779-178.942 0-14.139-11.461-25.6-25.6-25.6h-383.197c3.491-53.147 18.376-91.056 45.216-115.458 28.234-25.666 71.797-38.142 133.181-38.142 65.19 0 110.498 14.173 138.507 43.33 9.797 10.194 26.002 10.518 36.197 0.725 10.195-9.795 10.52-26 0.725-36.197-38.178-39.739-95.562-59.058-175.429-59.058zM103.203 409.6h356.792c-3.49 53.146-18.374 91.058-45.216 115.458-28.232 25.666-71.795 38.142-133.179 38.142s-104.947-12.477-133.179-38.142c-26.842-24.4-41.726-62.312-45.218-115.458z" />
<glyph unicode="&#x66;" glyph-name="uni66" horiz-adv-x="307" d="M230.4 614.4h-128v51.2c0 35.325 5.933 61.541 17.632 77.92 15.672 21.942 41.274 24.48 59.168 24.48 18.589 0 32.899-1.602 43.754-4.899 13.522-4.112 27.826 3.526 31.934 17.054s-3.526 27.826-17.054 31.934c-15.749 4.784-34.928 7.11-58.634 7.11-45.142 0-79.067-15.45-100.832-45.92-18.282-25.595-27.168-60.816-27.168-107.68v-486.4c0-14.139 11.462-25.6 25.6-25.6s25.6 11.461 25.6 25.6v384h128c14.138 0 25.6 11.462 25.6 25.6s-11.462 25.6-25.6 25.6z" />
<glyph unicode="&#x67;" glyph-name="uni67" horiz-adv-x="563" d="M486.4 614.4c-14.139 0-25.6-11.462-25.6-25.6v-37.501c-3.661 4.067-7.518 7.95-11.579 11.643-38.088 34.626-92.918 51.458-167.621 51.458s-129.533-16.832-167.621-51.458c-42.245-38.405-62.779-96.936-62.779-178.942s20.534-140.539 62.779-178.942c38.088-34.626 92.918-51.458 167.621-51.458s129.533 16.832 167.621 51.458c4.061 3.693 7.918 7.574 11.579 11.642v-37.499c0-72.338-11.504-116.099-37.301-141.899-25.8-25.797-69.562-37.301-141.899-37.301-67.39 0-110.904 10.395-136.942 32.714-10.733 9.198-26.894 7.957-36.098-2.776-9.202-10.736-7.958-26.898 2.776-36.099 36.341-31.147 88.853-45.038 170.264-45.038 167.955 0 230.4 62.445 230.4 230.4v409.6c0 14.138-11.461 25.6-25.6 25.6zM414.779 242.942c-28.232-25.666-71.795-38.142-133.179-38.142s-104.947 12.477-133.179 38.142c-30.968 28.152-46.021 74.291-46.021 141.058s15.053 112.906 46.021 141.058c28.232 25.666 71.795 38.142 133.179 38.142s104.947-12.477 133.179-38.142c30.968-28.152 46.021-74.291 46.021-141.058s-15.053-112.906-46.021-141.058z" />
<glyph unicode="&#x68;" glyph-name="uni68" horiz-adv-x="512" d="M402.101 562.101c-34.701 34.704-83.858 52.299-146.101 52.299s-111.4-17.595-146.101-52.299c-2.586-2.586-5.082-5.272-7.499-8.042v239.541c0 14.138-11.462 25.6-25.6 25.6s-25.6-11.462-25.6-25.6v-614.4c0-14.139 11.462-25.6 25.6-25.6s25.6 11.461 25.6 25.6v204.8c0 65.158 14.702 112.899 43.701 141.899 24.754 24.75 61.728 37.301 109.899 37.301s85.147-12.55 109.899-37.301c28.998-29 43.701-76.741 43.701-141.899v-204.8c0-14.139 11.461-25.6 25.6-25.6s25.6 11.461 25.6 25.6v204.8c0 79.23-19.749 139.154-58.699 178.101z" />
<glyph unicode="&#x69;" glyph-name="uni69" horiz-adv-x="154" d="M76.8 153.6c-14.138 0-25.6 11.461-25.6 25.6v409.6c0 14.138 11.462 25.6 25.6 25.6s25.6-11.462 25.6-25.6v-409.6c0-14.139-11.461-25.6-25.6-25.6zM76.8 716.8c-14.138 0-25.6 11.462-25.6 25.6v51.2c0 14.138 11.462 25.6 25.6 25.6s25.6-11.462 25.6-25.6v-51.2c0-14.138-11.461-25.6-25.6-25.6z" />
<glyph unicode="&#x6a;" glyph-name="uni6a" horiz-adv-x="256" d="M25.578-50.534c-13.498 0-24.792 10.56-25.539 24.2-0.773 14.117 10.043 26.189 24.162 26.963 48.941 2.68 81.779 14.104 100.39 34.925 19.792 22.139 29.010 59.648 29.010 118.046v435.2c0 14.138 11.461 25.6 25.6 25.6s25.6-11.462 25.6-25.6v-435.2c0-71.736-13.358-120.090-42.038-152.17-28.526-31.914-71.667-48.414-135.762-51.925-0.477-0.027-0.95-0.040-1.422-0.040zM179.2 716.8c-14.139 0-25.6 11.462-25.6 25.6v51.2c0 14.138 11.461 25.6 25.6 25.6s25.6-11.462 25.6-25.6v-51.2c0-14.138-11.461-25.6-25.6-25.6z" />
<glyph unicode="&#x6b;" glyph-name="uni6b" horiz-adv-x="410" d="M164.203 384l186.698 186.699c9.998 9.997 9.998 26.206 0 36.203-9.997 9.998-26.206 9.998-36.203 0l-212.298-212.299v398.997c0 14.138-11.462 25.6-25.6 25.6s-25.6-11.462-25.6-25.6v-614.4c0-14.139 11.462-25.6 25.6-25.6s25.6 11.461 25.6 25.6v194.197l212.299-212.299c4.998-4.998 11.549-7.498 18.101-7.498s13.102 2.499 18.101 7.499c9.998 9.997 9.998 26.206 0 36.203l-186.698 186.698z" />
<glyph unicode="&#x6c;" glyph-name="uni6c" horiz-adv-x="154" d="M128.302 204.498c-0.102 0-0.2-0.014-0.302-0.016v0.318l0.302-0.003c-2.269 0.058-9.459 0.925-15.405 4.2-5.192 2.858-10.498 7.637-10.498 21.403v563.2c0 14.138-11.462 25.6-25.6 25.6s-25.6-11.462-25.6-25.6v-563.2c0-56.347 45.93-76.8 76.8-76.8v0.318c0.101-0.002 0.2-0.016 0.302-0.016 13.971 0 25.298 11.326 25.298 25.298s-11.326 25.298-25.298 25.298z" />
<glyph unicode="&#x6d;" glyph-name="uni6d" horiz-adv-x="870" d="M760.501 562.101c-34.701 34.704-83.858 52.299-146.101 52.299s-111.4-17.595-146.101-52.299c-13.27-13.27-24.307-28.981-33.099-47.054-8.79 18.074-19.829 33.784-33.099 47.054-34.701 34.704-83.858 52.299-146.101 52.299s-111.4-17.595-146.101-52.299c-2.586-2.586-5.082-5.272-7.499-8.042v34.741c0 14.138-11.462 25.6-25.6 25.6s-25.6-11.462-25.6-25.6v-409.6c0-14.139 11.462-25.6 25.6-25.6s25.6 11.461 25.6 25.6v204.8c0 65.158 14.702 112.899 43.701 141.899 24.754 24.75 61.728 37.301 109.899 37.301s85.147-12.55 109.899-37.301c28.998-29 43.701-76.741 43.701-141.899v-204.8c0-14.139 11.461-25.6 25.6-25.6s25.6 11.461 25.6 25.6v204.8c0 65.158 14.702 112.899 43.701 141.899 24.752 24.75 61.728 37.301 109.899 37.301s85.147-12.55 109.899-37.301c28.998-29 43.701-76.741 43.701-141.899v-204.8c0-14.139 11.461-25.6 25.6-25.6s25.6 11.461 25.6 25.6v204.8c0 79.23-19.749 139.154-58.699 178.101z" />
<glyph unicode="&#x6e;" glyph-name="uni6e" horiz-adv-x="512" d="M402.101 562.101c-34.701 34.704-83.858 52.299-146.101 52.299s-111.4-17.595-146.101-52.299c-2.586-2.586-5.082-5.272-7.499-8.042v34.741c0 14.138-11.462 25.6-25.6 25.6s-25.6-11.462-25.6-25.6v-409.6c0-14.139 11.462-25.6 25.6-25.6s25.6 11.461 25.6 25.6v204.8c0 65.158 14.702 112.899 43.701 141.899 24.754 24.75 61.728 37.301 109.899 37.301s85.147-12.55 109.899-37.301c28.998-29 43.701-76.741 43.701-141.899v-204.8c0-14.139 11.461-25.6 25.6-25.6s25.6 11.461 25.6 25.6v204.8c0 79.23-19.749 139.154-58.699 178.101z" />
<glyph unicode="&#x6f;" glyph-name="uni6f" horiz-adv-x="563" d="M281.6 153.6c-74.702 0-129.533 16.832-167.621 51.458-42.245 38.403-62.779 96.936-62.779 178.942s20.534 140.538 62.779 178.942c38.088 34.626 92.918 51.458 167.621 51.458s129.533-16.832 167.621-51.458c42.243-38.405 62.779-96.936 62.779-178.942s-20.536-140.539-62.779-178.942c-38.088-34.626-92.918-51.458-167.621-51.458zM281.6 563.2c-61.384 0-104.947-12.477-133.179-38.142-30.968-28.152-46.021-74.291-46.021-141.058s15.053-112.906 46.021-141.058c28.232-25.666 71.795-38.142 133.179-38.142s104.947 12.477 133.179 38.142c30.968 28.152 46.021 74.291 46.021 141.058s-15.053 112.906-46.021 141.058c-28.232 25.666-71.795 38.142-133.179 38.142z" />
<glyph unicode="&#x70;" glyph-name="uni70" horiz-adv-x="563" d="M449.221 562.942c-38.088 34.626-92.918 51.458-167.621 51.458s-129.533-16.832-167.621-51.458c-4.062-3.693-7.918-7.574-11.579-11.643v37.501c0 14.138-11.462 25.6-25.6 25.6s-25.6-11.462-25.6-25.6v-614.4c0-14.139 11.462-25.6 25.6-25.6s25.6 11.461 25.6 25.6v242.301c3.662-4.067 7.518-7.95 11.579-11.642 38.088-34.627 92.918-51.459 167.621-51.459s129.533 16.832 167.621 51.458c42.243 38.403 62.779 96.936 62.779 178.942s-20.536 140.538-62.779 178.942zM414.779 242.942c-28.232-25.666-71.795-38.142-133.179-38.142s-104.947 12.477-133.179 38.142c-30.968 28.152-46.021 74.291-46.021 141.058s15.053 112.906 46.021 141.058c28.232 25.666 71.795 38.142 133.179 38.142s104.947-12.477 133.179-38.142c30.968-28.152 46.021-74.291 46.021-141.058s-15.053-112.906-46.021-141.058z" />
<glyph unicode="&#x71;" glyph-name="uni71" horiz-adv-x="563" d="M486.4 614.4c-14.139 0-25.6-11.462-25.6-25.6v-37.501c-3.661 4.067-7.518 7.95-11.579 11.643-38.088 34.626-92.918 51.458-167.621 51.458s-129.533-16.832-167.621-51.458c-42.245-38.405-62.779-96.936-62.779-178.942s20.534-140.539 62.779-178.942c38.088-34.626 92.918-51.458 167.621-51.458s129.533 16.832 167.621 51.458c4.061 3.693 7.918 7.574 11.579 11.642v-242.299c0-14.139 11.461-25.6 25.6-25.6s25.6 11.461 25.6 25.6v614.4c0 14.138-11.461 25.6-25.6 25.6zM414.779 242.942c-28.232-25.666-71.795-38.142-133.179-38.142s-104.947 12.477-133.179 38.142c-30.968 28.152-46.021 74.291-46.021 141.058s15.053 112.906 46.021 141.058c28.232 25.666 71.795 38.142 133.179 38.142s104.947-12.477 133.179-38.142c30.968-28.152 46.021-74.291 46.021-141.058s-15.053-112.906-46.021-141.058z" />
<glyph unicode="&#x72;" glyph-name="uni72" horiz-adv-x="307" d="M255.888 590.029c-1.312 14.077-13.784 24.422-27.867 23.114-43.136-4.022-90.698-19.018-125.621-58.971v34.629c0 14.138-11.462 25.6-25.6 25.6s-25.6-11.462-25.6-25.6v-409.6c0-14.139 11.462-25.6 25.6-25.6s25.6 11.461 25.6 25.6v204.8c0 60.166 12.541 105.55 37.272 134.893 21.293 25.261 51.746 39.414 93.102 43.269 14.078 1.314 24.426 13.789 23.114 27.867z" />
<glyph unicode="&#x73;" glyph-name="uni73" horiz-adv-x="461" d="M347.794 372.97c-31.525 16.366-72.083 26.294-111.307 35.896-80.995 19.827-134.086 35.826-134.086 75.934 0 25.448 0 78.4 128 78.4 89.373 0 133.79-42.050 135.637-43.84l-0.13 0.13c4.634-4.627 11.029-7.49 18.093-7.49 14.139 0 25.6 11.462 25.6 25.6 0 7.075-2.87 13.478-7.509 18.112-2.498 2.494-60.074 58.688-171.691 58.688-118.909 0-179.2-43.603-179.2-129.6 0-38.28 20.795-68.483 61.805-89.77 31.525-16.366 72.085-26.294 111.307-35.896 80.997-19.827 134.088-35.826 134.088-75.934 0-25.446 0-78.4-128-78.4-89.374 0-133.79 42.050-135.637 43.84l0.13-0.13c-4.632 4.627-11.029 7.49-18.093 7.49-14.138 0-25.6-11.461-25.6-25.6 0-7.075 2.87-13.48 7.51-18.112 2.498-2.498 60.075-58.688 171.69-58.688 118.907 0 179.2 43.603 179.2 129.6 0 38.28-20.794 68.483-61.806 89.77z" />
<glyph unicode="&#x74;" glyph-name="uni74" horiz-adv-x="307" d="M254.888 192.645c-4.109 13.528-18.411 21.165-31.934 17.054-10.854-3.296-25.165-4.899-43.754-4.899-17.894 0-43.496 2.538-59.168 24.48-11.699 16.379-17.632 42.595-17.632 77.92v256h127.994c14.138 0 25.6 11.462 25.6 25.6s-11.462 25.6-25.6 25.6h-127.994v179.2c0 14.138-11.462 25.6-25.6 25.6s-25.6-11.462-25.6-25.6v-486.4c0-46.862 8.886-82.086 27.168-107.68 21.765-30.47 55.69-45.92 100.832-45.92 23.706 0 42.885 2.325 58.634 7.109 13.53 4.11 21.165 18.408 17.054 31.936z" />
<glyph unicode="&#x75;" glyph-name="uni75" horiz-adv-x="512" d="M435.2 614.4c-14.139 0-25.6-11.462-25.6-25.6v-204.8c0-65.158-14.702-112.899-43.701-141.899-24.752-24.75-61.728-37.301-109.899-37.301s-85.146 12.55-109.899 37.301c-28.998 29-43.701 76.741-43.701 141.899v204.8c0 14.138-11.462 25.6-25.6 25.6s-25.6-11.462-25.6-25.6v-204.8c0-79.232 19.749-139.154 58.699-178.101 34.701-34.704 83.858-52.299 146.101-52.299s111.4 17.595 146.101 52.299c2.586 2.586 5.082 5.272 7.499 8.042v-34.741c0-14.139 11.461-25.6 25.6-25.6s25.6 11.461 25.6 25.6v409.6c0 14.138-11.461 25.6-25.6 25.6z" />
<glyph unicode="&#x76;" glyph-name="uni76" horiz-adv-x="461" d="M230.4 153.6c-10.67 0-20.224 6.619-23.97 16.611l-153.6 409.6c-4.965 13.238 1.742 27.995 14.981 32.96 13.238 4.966 27.995-1.742 32.96-14.981l129.629-345.682 129.63 345.68c4.966 13.237 19.73 19.942 32.96 14.981 13.237-4.965 19.946-19.722 14.981-32.96l-153.6-409.6c-3.747-9.99-13.301-16.61-23.971-16.61z" />
<glyph unicode="&#x77;" glyph-name="uni77" horiz-adv-x="768" d="M700.189 612.77c-13.234 4.962-27.994-1.744-32.96-14.981l-129.629-345.68-129.654 345.672c-2.507 6.678-7.755 12.288-14.958 14.99-13.23 4.962-27.992-1.744-32.96-14.981l-129.627-345.682-129.63 345.68c-4.965 13.238-19.722 19.947-32.96 14.981-13.238-4.965-19.946-19.722-14.981-32.96l153.6-409.6c3.747-9.99 13.301-16.61 23.971-16.61s20.224 6.619 23.97 16.611l129.63 345.678 129.63-345.678c3.746-9.992 13.298-16.611 23.97-16.611s20.224 6.619 23.97 16.611l153.6 409.6c4.965 13.238-1.742 27.994-14.981 32.958z" />
<glyph unicode="&#x78;" glyph-name="uni78" horiz-adv-x="461" d="M262.4 384l142.080 189.44c8.483 11.31 6.19 27.357-5.12 35.84-11.309 8.485-27.358 6.192-35.838-5.12l-133.122-177.494-133.12 177.494c-8.482 11.31-24.53 13.605-35.84 5.12-11.31-8.483-13.603-24.53-5.12-35.84l142.080-189.44-142.080-189.44c-8.483-11.309-6.192-27.357 5.12-35.838 4.605-3.454 9.995-5.122 15.341-5.122 7.782 0 15.47 3.536 20.499 10.242l133.12 177.493 133.12-177.494c5.030-6.706 12.715-10.242 20.499-10.242 5.344 0 10.734 1.669 15.339 5.122 11.31 8.483 13.603 24.53 5.12 35.838l-142.078 189.442z" />
<glyph unicode="&#x79;" glyph-name="uni79" horiz-adv-x="461" d="M392.989 612.77c-13.23 4.962-27.992-1.744-32.96-14.981l-129.629-345.68-129.63 345.68c-4.965 13.238-19.722 19.947-32.96 14.981-13.238-4.965-19.946-19.722-14.981-32.96l150.227-400.606c-55.442-147.589-70.306-179.203-126.256-179.203-14.138 0-25.6-11.461-25.6-25.6s11.462-25.6 25.6-25.6c47.219 0 78.686 16.77 105.219 56.078 23.291 34.502 42.808 86.55 72.352 165.333l153.6 409.6c4.963 13.238-1.744 27.994-14.982 32.958z" />
<glyph unicode="&#x7a;" glyph-name="uni7a" horiz-adv-x="461" d="M384 153.6h-307.2c-9.698 0-18.562 5.478-22.898 14.152s-3.4 19.051 2.418 26.808l276.48 368.64h-256c-14.138 0-25.6 11.462-25.6 25.6s11.462 25.6 25.6 25.6h307.2c9.698 0 18.562-5.478 22.898-14.152 4.338-8.672 3.402-19.051-2.418-26.808l-276.48-368.64h256c14.139 0 25.6-11.461 25.6-25.6s-11.461-25.6-25.6-25.6z" />
<glyph unicode="&#x7b;" glyph-name="uni7b" horiz-adv-x="358" d="M281.6 51.2h-25.6c-28.232 0-51.2 22.968-51.2 51.2v307.2c0 30.563-13.475 58.021-34.776 76.8 21.301 18.779 34.776 46.237 34.776 76.8v256c0 28.232 22.968 51.2 51.2 51.2h25.6c14.139 0 25.6 11.462 25.6 25.6s-11.461 25.6-25.6 25.6h-25.6c-56.464 0-102.4-45.936-102.4-102.4v-256c0-28.232-22.968-51.2-51.2-51.2h-25.6c-14.138 0-25.6-11.462-25.6-25.6s11.462-25.6 25.6-25.6h25.6c28.232 0 51.2-22.968 51.2-51.2v-307.2c0-56.464 45.936-102.4 102.4-102.4h25.6c14.139 0 25.6 11.461 25.6 25.6s-11.461 25.6-25.6 25.6z" />
<glyph unicode="&#x7c;" glyph-name="uni7c" horiz-adv-x="256" d="M128 0c-14.138 0-25.6 11.461-25.6 25.6v870.4c0 14.138 11.462 25.6 25.6 25.6 14.139 0 25.6-11.462 25.6-25.6v-870.4c0-14.139-11.461-25.6-25.6-25.6z" />
<glyph unicode="&#x7d;" glyph-name="uni7d" horiz-adv-x="358" d="M76.8 51.2h25.6c28.232 0 51.2 22.968 51.2 51.2v307.2c0 30.563 13.475 58.021 34.776 76.8-21.301 18.779-34.776 46.237-34.776 76.8v256c0 28.232-22.968 51.2-51.2 51.2h-25.6c-14.139 0-25.6 11.462-25.6 25.6s11.461 25.6 25.6 25.6h25.6c56.464 0 102.4-45.936 102.4-102.4v-256c0-28.232 22.968-51.2 51.2-51.2h25.6c14.138 0 25.6-11.462 25.6-25.6s-11.462-25.6-25.6-25.6h-25.6c-28.232 0-51.2-22.968-51.2-51.2v-307.2c0-56.464-45.936-102.4-102.4-102.4h-25.6c-14.139 0-25.6 11.461-25.6 25.6s11.461 25.6 25.6 25.6z" />
<glyph unicode="&#x7e;" glyph-name="uni7e" horiz-adv-x="563" d="M76.813 358.394c-2.33 0-4.694 0.32-7.045 0.99-13.595 3.885-21.467 18.054-17.582 31.648 17.014 59.549 46.867 96.282 88.728 109.179 74.101 22.832 153.723-42.552 157.077-45.346 17.011-14.059 69.898-47.952 109.328-35.717 24.205 7.512 42.531 32.504 54.467 74.283 3.885 13.594 18.056 21.467 31.648 17.582 13.595-3.885 21.466-18.053 17.582-31.648-17.014-59.549-46.867-96.282-88.728-109.179-10.976-3.381-22.083-4.829-33.035-4.83-62.987-0.003-121.184 47.795-124.042 50.174-17.010 14.059-69.898 47.954-109.328 35.717-24.205-7.512-42.531-32.504-54.467-74.283-3.214-11.242-13.464-18.571-24.603-18.571z" />
<glyph unicode="&#xa9;" glyph-name="copyright" horiz-adv-x="768" d="M384 153.6c-108.958 0-192.566 28.363-248.502 84.299-55.936 55.934-84.298 139.542-84.298 248.501s28.362 192.566 84.298 248.502c55.936 55.936 139.544 84.298 248.502 84.298s192.566-28.362 248.501-84.298c55.936-55.936 84.299-139.544 84.299-248.502s-28.363-192.566-84.299-248.501-139.542-84.299-248.501-84.299zM384 768c-94.886 0-166.312-23.317-212.298-69.302s-69.302-117.413-69.302-212.298c0-94.886 23.317-166.312 69.302-212.299 45.986-45.984 117.411-69.301 212.298-69.301s166.312 23.317 212.299 69.301c45.984 45.987 69.301 117.413 69.301 212.299 0 94.885-23.317 166.312-69.301 212.298-45.987 45.986-117.413 69.302-212.299 69.302zM384 307.2c-57.997 0-102.846 15.442-133.301 45.899-30.458 30.454-45.899 75.304-45.899 133.301s15.442 102.846 45.899 133.301c30.454 30.458 75.304 45.899 133.301 45.899 81.15 0 136.667-19.851 169.725-60.69 8.896-10.99 7.198-27.109-3.792-36.005-10.987-8.898-27.107-7.2-36.005 3.79-22.715 28.062-65.216 41.704-129.928 41.704-43.925 0-76.594-10.397-97.099-30.901-20.504-20.506-30.901-53.174-30.901-97.099s10.397-76.594 30.901-97.099 53.174-30.901 97.099-30.901c64.714 0 107.214 13.642 129.93 41.706 8.894 10.992 25.014 12.69 36.005 3.792 10.989-8.896 12.688-25.016 3.792-36.005-33.058-40.84-88.574-60.693-169.726-60.693z" />
<glyph unicode="&#xe600;" glyph-name="home" d="M1017.382 349.974l-452.050 499.634c-14.051 15.533-32.992 24.086-53.333 24.086-0.002 0 0 0 0 0-20.339 0-39.282-8.555-53.334-24.086l-452.050-499.634c-9.485-10.485-8.675-26.674 1.808-36.158 4.899-4.432 11.043-6.616 17.168-6.616 6.982 0 13.938 2.838 18.992 8.426l109.016 120.491v-410.517c0-42.347 34.453-76.8 76.8-76.8h563.2c42.347 0 76.8 34.453 76.8 76.8v410.517l109.018-120.493c9.485-10.483 25.674-11.296 36.158-1.808 10.483 9.485 11.293 25.675 1.806 36.158zM614.4 0h-204.8v230.4c0 14.115 11.485 25.6 25.6 25.6h153.6c14.115 0 25.6-11.485 25.6-25.6v-230.4zM819.2 25.6c0-14.115-11.485-25.6-25.6-25.6h-128v230.4c0 42.349-34.451 76.8-76.8 76.8h-153.6c-42.347 0-76.8-34.451-76.8-76.8v-230.4h-128c-14.115 0-25.6 11.485-25.6 25.6v467.106l291.832 322.552c4.222 4.667 9.68 7.237 15.368 7.237s11.146-2.57 15.366-7.235l291.834-322.552v-467.107z" />
<glyph unicode="&#xe601;" glyph-name="home2" d="M25.592 358.4c-6.125 0-12.269 2.184-17.166 6.618-10.485 9.485-11.294 25.674-1.808 36.158l452.048 499.632c14.053 15.531 32.995 24.086 53.334 24.086 0 0 0 0 0 0 20.339 0 39.28-8.554 53.333-24.086l452.050-499.634c9.486-10.485 8.677-26.674-1.808-36.158-10.485-9.488-26.674-8.677-36.158 1.808l-452.050 499.635c-4.222 4.667-9.68 7.235-15.366 7.235s-11.146-2.57-15.368-7.237l-452.048-499.632c-5.053-5.587-12.010-8.426-18.992-8.426zM793.6-51.2h-563.2c-42.347 0-76.8 34.453-76.8 76.8v409.6c0 14.139 11.462 25.6 25.6 25.6s25.6-11.461 25.6-25.6v-409.6c0-14.115 11.485-25.6 25.6-25.6h563.2c14.115 0 25.6 11.485 25.6 25.6v409.6c0 14.139 11.461 25.6 25.6 25.6s25.6-11.461 25.6-25.6v-409.6c0-42.347-34.453-76.8-76.8-76.8z" />
<glyph unicode="&#xe602;" glyph-name="home3" d="M25.592 358.4c-6.125 0-12.269 2.184-17.166 6.618-10.485 9.485-11.294 25.674-1.808 36.158l452.048 499.632c14.053 15.531 32.995 24.086 53.334 24.086 0 0 0 0 0 0 20.339 0 39.28-8.554 53.333-24.086l452.050-499.634c9.486-10.485 8.677-26.674-1.808-36.158-10.485-9.488-26.674-8.677-36.158 1.808l-452.050 499.635c-4.222 4.667-9.68 7.235-15.366 7.235s-11.146-2.57-15.368-7.237l-452.048-499.632c-5.053-5.587-12.010-8.426-18.992-8.426zM793.6-51.2h-204.8c-14.139 0-25.6 11.461-25.6 25.6v179.2h-102.4v-179.2c0-14.139-11.462-25.6-25.6-25.6h-204.8c-42.347 0-76.8 34.453-76.8 76.8v409.6c0 14.139 11.462 25.6 25.6 25.6s25.6-11.461 25.6-25.6v-409.6c0-14.115 11.485-25.6 25.6-25.6h179.2v179.2c0 14.139 11.462 25.6 25.6 25.6h153.6c14.139 0 25.6-11.461 25.6-25.6v-179.2h179.2c14.115 0 25.6 11.485 25.6 25.6v409.6c0 14.139 11.461 25.6 25.6 25.6s25.6-11.461 25.6-25.6v-409.6c0-42.347-34.453-76.8-76.8-76.8z" />
<glyph unicode="&#xe603;" glyph-name="home4" d="M25.592 358.4c-6.125 0-12.269 2.184-17.166 6.618-10.485 9.485-11.294 25.674-1.808 36.158l452.048 499.632c14.053 15.531 32.995 24.086 53.334 24.086 0 0 0 0 0 0 20.339 0 39.28-8.554 53.333-24.086l151.802-167.781-0.334 60.432c-0.037 6.814 2.643 13.362 7.448 18.194 4.805 4.83 11.338 7.547 18.152 7.547h102.4c14.139 0 25.6-11.462 25.6-25.6v-229.97l146.982-162.456c9.486-10.485 8.677-26.674-1.808-36.158-10.485-9.488-26.674-8.677-36.158 1.808l-153.6 169.766c-4.259 4.707-6.618 10.829-6.618 17.176v214.234h-51.058l0.563-101.691c0.058-10.613-6.437-20.162-16.331-24.005-9.894-3.84-21.133-1.182-28.251 6.688l-196.755 217.467c-4.222 4.667-9.68 7.235-15.366 7.235s-11.146-2.57-15.368-7.237l-452.048-499.632c-5.053-5.587-12.010-8.426-18.992-8.426zM793.6-51.2h-204.8c-14.139 0-25.6 11.461-25.6 25.6v179.2h-102.4v-179.2c0-14.139-11.462-25.6-25.6-25.6h-204.8c-42.347 0-76.8 34.453-76.8 76.8v409.6c0 14.139 11.462 25.6 25.6 25.6s25.6-11.461 25.6-25.6v-409.6c0-14.115 11.485-25.6 25.6-25.6h179.2v179.2c0 14.139 11.462 25.6 25.6 25.6h153.6c14.139 0 25.6-11.461 25.6-25.6v-179.2h179.2c14.115 0 25.6 11.485 25.6 25.6v409.6c0 14.139 11.461 25.6 25.6 25.6s25.6-11.461 25.6-25.6v-409.6c0-42.347-34.453-76.8-76.8-76.8z" />
<glyph unicode="&#xe604;" glyph-name="home5" d="M25.592 358.4c-6.125 0-12.269 2.184-17.166 6.618-10.485 9.485-11.294 25.674-1.808 36.158l452.048 499.632c14.053 15.531 32.995 24.086 53.334 24.086 0 0 0 0 0 0 20.339 0 39.28-8.554 53.333-24.086l151.802-167.781-0.334 60.432c-0.037 6.814 2.643 13.362 7.448 18.194 4.805 4.83 11.338 7.547 18.152 7.547h102.4c14.139 0 25.6-11.462 25.6-25.6v-229.97l146.982-162.456c9.486-10.485 8.677-26.674-1.808-36.158-10.485-9.488-26.674-8.677-36.158 1.808l-153.6 169.766c-4.259 4.707-6.618 10.829-6.618 17.176v214.234h-51.058l0.563-101.691c0.058-10.613-6.437-20.162-16.331-24.005-9.894-3.84-21.133-1.182-28.251 6.688l-196.755 217.467c-4.222 4.667-9.68 7.235-15.366 7.235s-11.146-2.57-15.368-7.237l-452.048-499.632c-5.053-5.587-12.010-8.426-18.992-8.426zM793.6-51.2h-563.2c-42.347 0-76.8 34.453-76.8 76.8v409.6c0 14.139 11.462 25.6 25.6 25.6s25.6-11.461 25.6-25.6v-409.6c0-14.115 11.485-25.6 25.6-25.6h563.2c14.115 0 25.6 11.485 25.6 25.6v409.6c0 14.139 11.461 25.6 25.6 25.6s25.6-11.461 25.6-25.6v-409.6c0-42.347-34.453-76.8-76.8-76.8z" />
<glyph unicode="&#xe605;" glyph-name="home6" d="M742.4-51.2h-153.6c-14.139 0-25.6 11.461-25.6 25.6v179.2h-102.4v-179.2c0-14.139-11.462-25.6-25.6-25.6h-153.6c-42.347 0-76.8 34.451-76.8 76.8v313.506l-57.816-63.901c-9.451-10.443-25.56-11.293-36.054-1.902l-102.4 91.621c-5.078 4.544-8.134 10.923-8.494 17.728s2.010 13.472 6.581 18.525l452.050 499.632c14.053 15.533 32.995 24.086 53.334 24.086 20.341 0 39.282-8.554 53.333-24.086l452.050-499.634c4.571-5.053 6.941-11.72 6.581-18.523-0.36-6.805-3.416-13.186-8.494-17.73l-102.4-91.622c-10.499-9.39-26.605-8.541-36.053 1.902l-57.814 63.901-0.002-313.502c0-42.349-34.451-76.8-76.8-76.8zM614.4 0h128c14.115 0 25.6 11.485 25.6 25.6l0.003 379.957c0 10.587 6.517 20.083 16.397 23.89 9.882 3.805 21.083 1.138 28.187-6.714l85.315-94.299 64.242 57.48-434.778 480.546c-4.222 4.667-9.68 7.235-15.366 7.235-5.688 0-11.146-2.57-15.368-7.237l-434.778-480.544 64.243-57.482 85.32 94.301c7.102 7.853 18.306 10.518 28.187 6.714 9.88-3.806 16.397-13.301 16.397-23.89v-379.957c0-14.115 11.485-25.6 25.6-25.6h128v179.2c0 14.139 11.462 25.6 25.6 25.6h153.6c14.139 0 25.6-11.461 25.6-25.6v-179.2z" />
<glyph unicode="&#xe606;" glyph-name="bathtub" d="M844.8-51.2h-51.2c-14.139 0-25.6 11.461-25.6 25.6s11.461 25.6 25.6 25.6h51.2c14.139 0 25.6-11.461 25.6-25.6s-11.461-25.6-25.6-25.6zM230.4-51.2h-51.2c-14.138 0-25.6 11.461-25.6 25.6s11.462 25.6 25.6 25.6h51.2c14.138 0 25.6-11.461 25.6-25.6s-11.462-25.6-25.6-25.6zM1024 332.8c0 42.349-34.451 76.8-76.8 76.8h-793.6v486.4c0 14.115 11.485 25.6 25.6 25.6h76.8c7.288 0 20.446-5.451 25.6-10.603l6.43-6.43c-47.582-65.048-42.016-157.106 16.707-215.832 4.8-4.802 11.312-7.499 18.102-7.499s13.301 2.698 18.102 7.499l199.12 199.122c9.998 9.997 9.998 26.206 0 36.203-31.429 31.43-73.216 48.739-117.662 48.739-35.794 0-69.856-11.232-98.178-32.016l-6.419 6.418c-14.834 14.834-40.826 25.6-61.803 25.6h-76.8c-42.347 0-76.8-34.453-76.8-76.8v-486.4h-25.6c-42.347 0-76.8-34.451-76.8-76.8 0-33.373 21.403-61.829 51.2-72.397v-132.403c0-70.579 57.421-128 128-128h665.6c70.579 0 128 57.421 128 128v132.403c29.797 10.566 51.2 39.024 51.2 72.397zM483.749 903.952l-158.883-158.883c-27.978 44.488-22.621 104.093 16.075 142.789 21.76 21.758 50.69 33.741 81.459 33.741 22.050 0 43.152-6.154 61.349-17.646zM844.8 51.2h-665.6c-42.347 0-76.8 34.451-76.8 76.8v128h819.2v-128c0-42.349-34.451-76.8-76.8-76.8zM947.2 307.2h-870.4c-14.115 0-25.6 11.485-25.6 25.6s11.485 25.6 25.6 25.6h870.4c14.115 0 25.6-11.485 25.6-25.6s-11.485-25.6-25.6-25.6zM512 640c0-14.138-11.462-25.6-25.6-25.6s-25.6 11.462-25.6 25.6c0 14.138 11.462 25.6 25.6 25.6s25.6-11.462 25.6-25.6zM512 742.4c0-14.138-11.462-25.6-25.6-25.6s-25.6 11.462-25.6 25.6c0 14.138 11.462 25.6 25.6 25.6s25.6-11.462 25.6-25.6zM614.4 742.4c0-14.138-11.462-25.6-25.6-25.6s-25.6 11.462-25.6 25.6c0 14.138 11.462 25.6 25.6 25.6s25.6-11.462 25.6-25.6zM614.4 640c0-14.138-11.462-25.6-25.6-25.6s-25.6 11.462-25.6 25.6c0 14.138 11.462 25.6 25.6 25.6s25.6-11.462 25.6-25.6zM716.8 742.4c0-14.138-11.462-25.6-25.6-25.6s-25.6 11.462-25.6 25.6c0 14.138 11.462 25.6 25.6 25.6s25.6-11.462 25.6-25.6zM512 537.6c0-14.138-11.462-25.6-25.6-25.6s-25.6 11.462-25.6 25.6c0 14.138 11.462 25.6 25.6 25.6s25.6-11.462 25.6-25.6zM716.8 640c0-14.138-11.462-25.6-25.6-25.6s-25.6 11.462-25.6 25.6c0 14.138 11.462 25.6 25.6 25.6s25.6-11.462 25.6-25.6zM614.4 537.6c0-14.138-11.462-25.6-25.6-25.6s-25.6 11.462-25.6 25.6c0 14.138 11.462 25.6 25.6 25.6s25.6-11.462 25.6-25.6z" />
<glyph unicode="&#xe607;" glyph-name="toothbrush" d="M76.8 256c-14.138 0-25.6 11.461-25.6 25.6v153.6c0 14.139 11.462 25.6 25.6 25.6s25.6-11.461 25.6-25.6v-153.6c0-14.139-11.462-25.6-25.6-25.6zM179.2 256c-14.138 0-25.6 11.461-25.6 25.6v153.6c0 14.139 11.462 25.6 25.6 25.6s25.6-11.461 25.6-25.6v-153.6c0-14.139-11.462-25.6-25.6-25.6zM281.6 256c-14.138 0-25.6 11.461-25.6 25.6v153.6c0 14.139 11.462 25.6 25.6 25.6s25.6-11.461 25.6-25.6v-153.6c0-14.139-11.462-25.6-25.6-25.6zM384 256c-14.138 0-25.6 11.461-25.6 25.6v153.6c0 14.139 11.462 25.6 25.6 25.6s25.6-11.461 25.6-25.6v-153.6c0-14.139-11.462-25.6-25.6-25.6zM998.4 51.2h-921.6c-42.347 0-76.8 34.451-76.8 76.8s34.453 76.8 76.8 76.8h921.6c14.139 0 25.6-11.461 25.6-25.6s-11.461-25.6-25.6-25.6h-921.6c-14.115 0-25.6-11.485-25.6-25.6s11.485-25.6 25.6-25.6h921.6c14.139 0 25.6-11.461 25.6-25.6s-11.461-25.6-25.6-25.6zM486.4 256c-14.138 0-25.6 11.461-25.6 25.6v153.6c0 14.139 11.462 25.6 25.6 25.6s25.6-11.461 25.6-25.6v-153.6c0-14.139-11.462-25.6-25.6-25.6zM460.8 512h-307.2c-84.696 0-153.6 68.904-153.6 153.6s68.904 153.6 153.6 153.6h25.6c14.138 0 25.6-11.462 25.6-25.6s-11.462-25.6-25.6-25.6c-14.115 0-25.6-11.485-25.6-25.6s11.485-25.6 25.6-25.6h281.6c56.464 0 102.4-45.936 102.4-102.4s-45.936-102.4-102.4-102.4zM103.405 754.834c-31.138-17.584-52.205-50.994-52.205-89.234 0-56.464 45.936-102.4 102.4-102.4h307.2c28.232 0 51.2 22.968 51.2 51.2s-22.968 51.2-51.2 51.2h-281.6c-42.347 0-76.8 34.453-76.8 76.8 0 4.232 0.344 8.386 1.005 12.434z" />
<glyph unicode="&#xe608;" glyph-name="bed" d="M896 51.2h-51.2c-14.139 0-25.6 11.461-25.6 25.6s11.461 25.6 25.6 25.6h51.2c14.139 0 25.6-11.461 25.6-25.6s-11.461-25.6-25.6-25.6zM128 51.2h-51.2c-14.138 0-25.6 11.461-25.6 25.6s11.462 25.6 25.6 25.6h51.2c14.138 0 25.6-11.461 25.6-25.6s-11.462-25.6-25.6-25.6zM955.296 389.467l-121.219 363.656c-10.174 30.526-39.302 55.587-71.088 63.474-1.101 4.883-2.368 9.507-3.802 13.805-11.6 34.802-31.536 39.998-42.387 39.998h-204.8c-6.515 0-16.304-1.883-25.6-10.914-9.294 9.030-19.085 10.914-25.6 10.914h-204.8c-10.851 0-30.787-5.197-42.389-39.998-1.434-4.299-2.701-8.923-3.8-13.805-31.786-7.886-60.912-32.947-71.088-63.474l-121.219-363.656c-9.814-29.446-17.504-76.829-17.504-107.867v-102.4c0-42.349 34.453-76.8 76.8-76.8h819.2c42.349 0 76.8 34.451 76.8 76.8v102.4c0 31.038-7.69 78.421-17.504 107.867zM520.040 819.2h188.718c3.563-8.045 8.040-26.301 8.040-51.2s-4.478-43.155-8.040-51.2h-188.718c-3.563 8.045-8.040 26.301-8.040 51.2s4.478 43.155 8.040 51.2zM264.040 819.2h188.718c3.563-8.045 8.040-26.301 8.040-51.2s-4.478-43.155-8.040-51.2h-188.718c-3.563 8.045-8.040 26.301-8.040 51.2s4.478 43.155 8.040 51.2zM187.296 736.933c2.766 8.301 9.483 16.21 17.669 21.976 0.706-19.843 3.712-38.506 8.646-53.309 11.602-34.803 31.538-40 42.389-40h204.8c6.515 0 16.306 1.883 25.6 10.914 9.296-9.030 19.085-10.914 25.6-10.914h204.8c10.851 0 30.787 5.197 42.387 39.998 4.934 14.803 7.941 33.467 8.648 53.309 8.184-5.766 14.901-13.675 17.669-21.976l40.845-122.531h-679.898l40.845 122.533zM129.386 563.2h714.030l63.307-189.923c1.618-4.85 3.181-10.422 4.651-16.426-4.968 1.014-10.11 1.549-15.374 1.549h-819.2c-5.264 0-10.406-0.534-15.376-1.549 1.47 6.003 3.035 11.574 4.653 16.426l63.309 189.923zM921.6 179.2c0-14.115-11.485-25.6-25.6-25.6h-819.2c-14.115 0-25.6 11.485-25.6 25.6v102.4c0 14.115 11.485 25.6 25.6 25.6h819.2c14.115 0 25.6-11.485 25.6-25.6v-102.4z" />
<glyph unicode="&#xe609;" glyph-name="couch" d="M230.4 0h-51.2c-14.138 0-25.6 11.461-25.6 25.6s11.462 25.6 25.6 25.6h51.2c14.138 0 25.6-11.461 25.6-25.6s-11.462-25.6-25.6-25.6zM844.8 0h-51.2c-14.139 0-25.6 11.461-25.6 25.6s11.461 25.6 25.6 25.6h51.2c14.139 0 25.6-11.461 25.6-25.6s-11.461-25.6-25.6-25.6zM921.234 611.89c-3.931 128.624-41.493 210.912-117.36 257.877-69.722 43.163-163.373 51.834-291.874 51.834s-222.15-8.67-291.875-51.834c-75.867-46.965-113.429-129.253-117.36-257.877-58.534-11.752-102.765-63.547-102.765-125.49 0-61.813 44.048-113.534 102.4-125.429v-232.971c0-42.349 34.453-76.8 76.8-76.8h665.6c42.349 0 76.8 34.451 76.8 76.8v232.971c58.352 11.894 102.4 63.616 102.4 125.429 0 61.942-44.232 113.738-102.766 125.49zM247.075 826.234c59.411 36.778 145.416 44.166 264.925 44.166s205.514-7.389 264.925-44.166c59.691-36.952 89.528-105.419 93.104-214.486-58.17-12.037-102.029-63.664-102.029-125.347v-76.8h-512v76.8c0 61.683-43.859 113.31-102.030 125.347 3.578 109.067 33.416 177.534 93.106 214.486zM256 358.4h512v-76.8c0-14.115-11.485-25.6-25.6-25.6h-460.8c-14.115 0-25.6 11.485-25.6 25.6v76.8zM896 409.6c-14.139 0-25.6-11.461-25.6-25.6v-256c0-14.115-11.485-25.6-25.6-25.6h-665.6c-14.115 0-25.6 11.485-25.6 25.6v256c0 14.139-11.462 25.6-25.6 25.6-42.347 0-76.8 34.451-76.8 76.8 0 42.347 34.453 76.8 76.8 76.8s76.8-34.453 76.8-76.8v-204.8c0-42.349 34.453-76.8 76.8-76.8h460.8c42.349 0 76.8 34.451 76.8 76.8v204.8c0 42.347 34.451 76.8 76.8 76.8s76.8-34.453 76.8-76.8c0-42.349-34.451-76.8-76.8-76.8zM793.6 665.6h-25.6c-56.464 0-102.4 45.936-102.4 102.4v25.6c0 14.138-11.461 25.6-25.6 25.6s-25.6-11.462-25.6-25.6v-25.6c0-56.464-45.936-102.4-102.4-102.4s-102.4 45.936-102.4 102.4v25.6c0 14.138-11.462 25.6-25.6 25.6s-25.6-11.462-25.6-25.6v-25.6c0-56.464-45.936-102.4-102.4-102.4h-25.6c-14.138 0-25.6-11.462-25.6-25.6s11.462-25.6 25.6-25.6h25.6c56.464 0 102.4-45.936 102.4-102.4v-25.6c0-14.139 11.462-25.6 25.6-25.6s25.6 11.461 25.6 25.6v25.6c0 56.464 45.936 102.4 102.4 102.4s102.4-45.936 102.4-102.4v-25.6c0-14.139 11.461-25.6 25.6-25.6s25.6 11.461 25.6 25.6v25.6c0 56.464 45.936 102.4 102.4 102.4h25.6c14.139 0 25.6 11.462 25.6 25.6s-11.461 25.6-25.6 25.6zM384 596.805c-11.374 17.11-26.083 31.819-43.195 43.195 17.11 11.374 31.819 26.083 43.195 43.195 11.374-17.11 26.083-31.819 43.195-43.195-17.112-11.374-31.821-26.083-43.195-43.195zM640 596.805c-11.374 17.11-26.083 31.819-43.195 43.195 17.112 11.374 31.821 26.083 43.195 43.195 11.374-17.11 26.083-31.819 43.195-43.195-17.112-11.374-31.821-26.083-43.195-43.195z" />
<glyph unicode="&#xe60a;" glyph-name="chair" d="M819.2 281.6v25.6c0 21.896-16.45 58.027-32.701 82.402l-45.6 68.397c-12.373 18.562-21.066 54.291-18.602 76.461l34.237 308.141c3.822 34.406-6.286 67-28.462 91.778-22.174 24.778-53.453 38.422-88.072 38.422h-307.2c-34.618 0-65.898-13.645-88.074-38.422s-32.285-57.371-28.462-91.778l34.237-308.139c2.464-22.171-6.23-57.901-18.603-76.462l-45.598-68.397c-16.25-24.374-32.699-60.507-32.699-82.402v-25.6c0-28.186 15.274-52.859 37.97-66.221-16.992-36.754-37.97-108.872-37.97-240.979 0-14.139 11.462-25.6 25.6-25.6s25.6 11.461 25.6 25.6c0 146.891 27.139 209.968 38.898 230.4h63.502v-128c0-14.139 11.462-25.6 25.6-25.6s25.6 11.461 25.6 25.6v128h256v-128c0-14.139 11.461-25.6 25.6-25.6s25.6 11.461 25.6 25.6v128h63.506c11.76-20.426 38.907-83.501 38.894-230.397-0.002-14.139 11.459-25.602 25.597-25.603 0.002 0 0.002 0 0.003 0 14.136 0 25.598 11.461 25.6 25.597 0.013 132.109-20.968 204.23-37.966 240.986 22.694 13.362 37.966 38.034 37.966 66.218zM742.4 256h-512c-14.115 0-25.6 11.485-25.6 25.6s11.485 25.6 25.6 25.6h512c14.115 0 25.6-11.485 25.6-25.6s-11.485-25.6-25.6-25.6zM274.499 429.598c18.826 28.238 30.637 76.784 26.89 110.515l-34.237 308.141c-2.194 19.738 3.392 38.197 15.725 51.978 12.334 13.779 30.064 21.368 49.923 21.368h307.2c19.859 0 37.589-7.589 49.922-21.368 12.334-13.781 17.92-32.24 15.726-51.978l-34.237-308.139c-3.749-33.731 8.061-82.275 26.89-110.517l45.6-68.397c0.638-0.96 1.264-1.923 1.88-2.888-1.122 0.048-2.246 0.086-3.379 0.086h-512.002c-1.133 0-2.258-0.037-3.378-0.086 0.616 0.965 1.24 1.928 1.88 2.888l45.597 68.397zM614.4 460.8h-256c-14.138 0-25.6 11.462-25.6 25.6s11.462 25.6 25.6 25.6h256c14.139 0 25.6-11.462 25.6-25.6s-11.461-25.6-25.6-25.6zM640 716.8h-25.6c-56.464 0-102.4 45.936-102.4 102.4v25.6c0 14.138-11.462 25.6-25.6 25.6s-25.6-11.462-25.6-25.6v-25.6c0-56.464-45.936-102.4-102.4-102.4h-25.6c-14.138 0-25.6-11.462-25.6-25.6s11.462-25.6 25.6-25.6h25.6c56.464 0 102.4-45.936 102.4-102.4v-25.6c0-14.138 11.462-25.6 25.6-25.6s25.6 11.462 25.6 25.6v25.6c0 56.464 45.936 102.4 102.4 102.4h25.6c14.139 0 25.6 11.462 25.6 25.6s-11.461 25.6-25.6 25.6zM486.4 648.005c-11.374 17.11-26.083 31.819-43.195 43.195 17.11 11.374 31.819 26.083 43.195 43.195 11.374-17.11 26.083-31.819 43.195-43.195-17.112-11.374-31.821-26.083-43.195-43.195z" />
<glyph unicode="&#xe60b;" glyph-name="city" d="M460.8 460.8h51.2v-51.2h-51.2v51.2zM563.2 460.8h51.2v-51.2h-51.2v51.2zM665.6 460.8h51.2v-51.2h-51.2v51.2zM768 460.8h51.2v-51.2h-51.2v51.2zM460.8 307.2h51.2v-51.2h-51.2v51.2zM563.2 307.2h51.2v-51.2h-51.2v51.2zM665.6 307.2h51.2v-51.2h-51.2v51.2zM768 307.2h51.2v-51.2h-51.2v51.2zM460.8 153.6h51.2v-51.2h-51.2v51.2zM563.2 153.6h51.2v-51.2h-51.2v51.2zM665.6 153.6h51.2v-51.2h-51.2v51.2zM768 153.6h51.2v-51.2h-51.2v51.2zM896 614.4h-25.6v128c0 6.79-2.698 13.301-7.499 18.101l-94.901 94.902v91.797c0 14.138-11.461 25.6-25.6 25.6s-25.6-11.462-25.6-25.6v-91.797l-94.901-94.901c-4.802-4.8-7.499-11.312-7.499-18.101v-25.6h-102.4v127.998c0 14.138-11.462 25.6-25.6 25.6h-409.6c-14.138 0-25.6-11.462-25.6-25.6v-870.4c0-14.139 11.462-25.6 25.6-25.6h819.2c14.139 0 25.6 11.461 25.6 25.6v614.4c0 14.138-11.461 25.6-25.6 25.6zM665.6 731.797l76.8 76.8 76.8-76.8v-117.397h-51.2v76.8c0 14.138-11.461 25.6-25.6 25.6h-76.8v14.997zM716.8 665.6v-51.2h-204.8v51.2h204.8zM358.4 588.8v-588.8h-256v819.2h358.4v-204.8h-76.8c-14.138 0-25.6-11.462-25.6-25.6zM870.4 0h-460.8v563.2h460.8v-563.2zM358.4 768h51.2v-102.4h-51.2v102.4zM256 768h51.2v-102.4h-51.2v102.4zM153.6 768h51.2v-102.4h-51.2v102.4zM153.6 614.4h51.2v-102.4h-51.2v102.4zM256 614.4h51.2v-102.4h-51.2v102.4zM153.6 460.8h51.2v-102.4h-51.2v102.4zM256 460.8h51.2v-102.4h-51.2v102.4zM153.6 307.2h51.2v-102.4h-51.2v102.4zM256 307.2h51.2v-102.4h-51.2v102.4zM153.6 153.6h51.2v-102.4h-51.2v102.4zM256 153.6h51.2v-102.4h-51.2v102.4z" />
<glyph unicode="&#xe60c;" glyph-name="apartment" d="M716.8 665.6h51.2v-51.2h-51.2v51.2zM716.8 563.2h51.2v-51.2h-51.2v51.2zM716.8 460.8h51.2v-51.2h-51.2v51.2zM716.8 358.4h51.2v-51.2h-51.2v51.2zM716.8 153.6h51.2v-51.2h-51.2v51.2zM716.8 256h51.2v-51.2h-51.2v51.2zM307.2 665.6h51.2v-51.2h-51.2v51.2zM307.2 563.2h51.2v-51.2h-51.2v51.2zM307.2 460.8h51.2v-51.2h-51.2v51.2zM307.2 358.4h51.2v-51.2h-51.2v51.2zM307.2 153.6h51.2v-51.2h-51.2v51.2zM307.2 256h51.2v-51.2h-51.2v51.2zM204.8 665.6h51.2v-51.2h-51.2v51.2zM204.8 563.2h51.2v-51.2h-51.2v51.2zM204.8 460.8h51.2v-51.2h-51.2v51.2zM204.8 358.4h51.2v-51.2h-51.2v51.2zM204.8 153.6h51.2v-51.2h-51.2v51.2zM204.8 256h51.2v-51.2h-51.2v51.2zM409.6 665.6h51.2v-51.2h-51.2v51.2zM409.6 563.2h51.2v-51.2h-51.2v51.2zM409.6 460.8h51.2v-51.2h-51.2v51.2zM409.6 358.4h51.2v-51.2h-51.2v51.2zM409.6 153.6h51.2v-51.2h-51.2v51.2zM409.6 256h51.2v-51.2h-51.2v51.2zM947.2 0h-25.6v691.2c0 39.058-29.024 79.326-66.077 91.677l-241.123 80.374v83.949c0 8.093-3.827 15.709-10.318 20.539-6.493 4.829-14.888 6.306-22.637 3.981l-462.96-138.886c-37.73-11.32-67.285-51.043-67.285-90.434v-742.4h-25.6c-14.138 0-25.6-11.461-25.6-25.6s11.462-25.6 25.6-25.6h921.6c14.139 0 25.6 11.461 25.6 25.6s-11.461 25.6-25.6 25.6zM839.333 734.304c16.259-5.419 31.067-25.965 31.067-43.104v-691.2h-256v809.282l224.933-74.978zM102.4 742.4c0 16.827 14.678 36.557 30.797 41.392l430.003 129.002v-912.794h-460.8v742.4z" />
<glyph unicode="&#xe60d;" glyph-name="pencil" d="M978.101 926.902c-28.77 28.768-67.018 44.611-107.701 44.611-40.685 0-78.933-15.843-107.701-44.611l-652.8-652.8c-2.645-2.645-4.678-5.837-5.957-9.354l-102.4-281.6c-3.4-9.347-1.077-19.818 5.957-26.85 4.885-4.888 11.43-7.499 18.104-7.499 2.933 0 5.891 0.502 8.744 1.541l281.6 102.4c3.515 1.28 6.709 3.312 9.354 5.958l652.8 652.8c28.768 28.768 44.613 67.018 44.613 107.702s-15.843 78.933-44.613 107.701zM293.114 98.917l-224.709-81.71 81.712 224.707 566.683 566.683 142.997-142.997-566.683-566.683zM941.899 747.702l-45.899-45.899-142.997 142.997 45.899 45.899c19.098 19.098 44.49 29.614 71.498 29.614s52.4-10.518 71.499-29.616c19.098-19.098 29.616-44.49 29.616-71.498s-10.52-52.4-29.616-71.498z" />
<glyph unicode="&#xe60e;" glyph-name="pencil2" d="M25.603-51.2c-6.675 0-13.219 2.611-18.106 7.499-7.034 7.034-9.355 17.502-5.957 26.85l102.4 281.6c1.278 3.515 3.312 6.707 5.957 9.354l691.2 691.2c9.997 9.997 26.206 9.997 36.203 0l179.2-179.2c9.998-9.998 9.998-26.206 0-36.205l-691.2-691.2c-2.645-2.645-5.838-4.678-9.354-5.958l-281.6-102.4c-2.851-1.037-5.811-1.539-8.744-1.539zM150.118 241.914l-81.712-224.707 224.709 81.71 669.080 669.083-142.995 142.997-669.082-669.083z" />
<glyph unicode="&#xe60f;" glyph-name="pen" d="M1002.101 950.902c-14.312 14.314-33.55 21.57-57.178 21.57-38.552 0-90.39-20.173-154.691-60.096-20.602 21.781-59.752 55.149-109.102 59.157-39.395 3.197-76.557-12.355-110.432-46.23-71.957-71.957-107.366-159.792-130.798-217.914-7.962-19.75-17.87-44.333-22.802-49.395-1.678-1.678-6.768-6.766-15.546 0.642-10.034 9.461-25.837 9.282-35.654-0.533-9.998-9.998-9.998-26.206 0-36.203 4.194-4.195 14.976-12.326 28.786-16.2 5.552-1.558 11.064-2.328 16.469-2.328 6.491 0 12.826 1.125 18.893 3.314-7.027-7.202-14.042-14.453-21.035-21.757-180.053-188.078-381.962-446.123-408.661-606.318-1.36-8.157 1.304-16.466 7.149-22.31 4.84-4.842 11.37-7.499 18.102-7.499 1.398 0 2.806 0.114 4.21 0.349 66.966 11.162 155.259 53.531 262.421 125.934 94.797 64.046 199.966 148.87 304.139 245.298 101.602 94.045 194.278 191.611 268.010 282.152 55.093 67.65 125.874 164.242 150.224 240.221 15.402 48.064 11.195 84.451-12.502 108.149zM606.901 889.099c23.026 23.026 45.891 33.309 69.89 31.418 28.702-2.251 53.931-21.411 69.893-36.875-12.624-8.782-25.642-18.197-39.067-28.269-72.926-54.71-155.656-127.411-238.080-208.931 5.494 11.168 11.082 25.010 17.853 41.803 21.877 54.267 54.936 136.277 119.512 200.854zM155.434 192.363l88.171-88.171c-69.91-45.646-132.29-78.139-182.782-94.581 16.483 50.515 49.075 112.971 94.611 182.752zM561.589 357.954c-96.040-88.899-189.934-165.266-274.792-224.547l-102.163 102.165c67.64 96.896 157.245 205.195 261.362 313.95 120.925 126.312 240.387 230.635 335.994 296.29l114.899-114.902c-73.266-106.797-193.818-241.995-335.299-372.955zM965.843 858.378c-7.579-23.651-21.382-51.859-40.506-83.512l-99.403 99.403c50.074 30.282 91.147 47.003 118.989 47.003 14.4 0 19.349-4.949 20.974-6.574 11.858-11.856 5.056-40.376-0.054-56.32z" />
<glyph unicode="&#xe610;" glyph-name="pencil3" d="M998.4 665.6c0 141.158-114.84 256-256 256-38.574 0-75.664-8.374-110.234-24.89-2.701-1.29-5.048-3.010-7.050-5.013l-0.016 0.016-540.803-540.813c-3.917-3.917-6.458-8.998-7.24-14.482l-51.2-358.4c-1.139-7.976 1.542-16.026 7.242-21.722 4.834-4.834 11.362-7.499 18.099-7.499 1.203 0 2.413 0.085 3.622 0.258l358.4 51.2c5.483 0.782 10.565 3.323 14.482 7.24l540.413 540.4c0.014 0.013 0.027 0.027 0.038 0.038l0.357 0.357-0.005 0.005c2.002 2.002 3.71 4.362 5.002 7.061 16.518 34.576 24.893 71.666 24.893 110.243zM947.2 665.6c0-29.456-6.104-57.8-18.122-84.328l-58.89-58.89c-5.36 147.034-123.971 265.646-271.006 271.006l58.891 58.891c26.528 12.016 54.874 18.12 84.326 18.12 112.926 0 204.8-91.872 204.8-204.8zM102.659 153.594l21.68 151.766c9.675 1.222 19.464 1.84 29.261 1.84 127.043 0 230.4-103.357 230.4-230.4 0-9.797-0.624-19.584-1.846-29.261l-151.76-21.68c-0.141 70.374-57.36 127.594-127.734 127.734zM543.8 738.003c14.741 2.915 29.842 4.397 45 4.397 54.318 0 104.298-18.906 143.73-50.467l-398.83-398.83c-46.368 38.674-105.312 62.736-169.709 65.086l379.81 379.814zM369.904 256.899l398.829 398.83c31.562-39.432 50.467-89.411 50.467-143.73 0-15.155-1.483-30.258-4.397-45.002l-379.814-379.806c-2.349 64.395-26.413 123.339-65.085 169.707zM95.298 102.064c2.354 0.214 4.722 0.336 7.102 0.336 42.347 0 76.8-34.451 76.8-76.8 0-2.381-0.122-4.749-0.336-7.101l-97.494-13.928 13.928 97.493z" />
<glyph unicode="&#xe611;" glyph-name="eraser" d="M1009.411 618.853c-1.317 7.912-3.949 15.614-7.917 22.846-5.862 10.678-14.136 19.464-24.146 25.901-0.083 0.056-0.17 0.107-0.253 0.163-0.536 0.342-1.074 0.685-1.621 1.014-4.899 3.040-10.494 5.547-16.731 7.421-1.253 0.381-2.522 0.734-3.806 1.056l-310.258 77.565c-8.272 2.067-17.4 3.117-27.13 3.117-30.661 0-63.979-10.504-84.883-26.76l-379.97-295.534c-26.094-20.296-54.722-60.76-65.174-92.118l-70.019-210.056c-6.587-19.763-4.811-40.49 5-58.366 9.813-17.875 26.347-30.501 46.557-35.555l310.259-77.566c8.27-2.067 17.4-3.115 27.13-3.115 24.293 0 50.227 6.61 70.357 17.434 4.678 2.33 9.506 5.424 14.525 9.328l379.97 295.531c26.094 20.298 54.722 60.76 65.174 92.118l70.019 210.056c4.694 14.082 5.659 25.811 2.917 35.522zM617.55 706.734c5.47 0 10.558-0.549 14.712-1.589l308.906-77.226-378.869-294.678c-12.096-9.408-34.074-15.978-53.448-15.976-5.47 0-10.558 0.549-14.712 1.587l-308.909 77.229 378.87 294.677c12.094 9.406 34.074 15.976 53.45 15.976zM67.389 99.741c-2.872 5.23-3.338 11.458-1.312 17.536l70.019 210.058c4.712 14.138 20.901 23.034 35.365 19.414 0 0 0 0 0.002 0l310.259-77.566c6.216-1.554 11.221-5.291 14.093-10.52 2.87-5.232 3.336-11.459 1.31-17.538l-70.021-210.058c-4.714-14.138-20.917-23.030-35.366-19.414l-52.73 13.182c-0.002 0-0.005 0.002-0.008 0.002l-257.52 64.382c-6.216 1.552-11.221 5.29-14.091 10.522zM839.867 321.573l-353.642-275.054 59.47 178.414c7.32 21.958 29.766 53.685 48.037 67.894l353.643 275.056-59.472-178.416c-7.318-21.957-29.766-53.683-48.037-67.894z" />
<glyph unicode="&#xe612;" glyph-name="pencil4" d="M179.203 102.4c-6.675 0-13.219 2.613-18.106 7.501-7.034 7.034-9.357 17.501-5.957 26.848l102.4 281.6c1.278 3.515 3.312 6.707 5.957 9.355l537.6 537.6c9.997 9.998 26.208 9.998 36.203 0l179.2-179.2c10-9.997 10-26.206 0-36.203l-537.6-537.6c-2.645-2.645-5.837-4.68-9.354-5.96l-281.6-102.4c-2.851-1.038-5.811-1.541-8.744-1.541zM303.718 395.512l-81.712-224.706 224.709 81.71 515.482 515.483-142.997 142.997-515.482-515.485zM896-51.2h-819.2c-42.347 0-76.8 34.451-76.8 76.8v819.2c0 42.347 34.453 76.8 76.8 76.8h512c14.139 0 25.6-11.462 25.6-25.6s-11.461-25.6-25.6-25.6h-512c-14.115 0-25.6-11.485-25.6-25.6v-819.2c0-14.115 11.485-25.6 25.6-25.6h819.2c14.115 0 25.6 11.485 25.6 25.6v512c0 14.138 11.461 25.6 25.6 25.6s25.6-11.462 25.6-25.6v-512c0-42.349-34.451-76.8-76.8-76.8z" />
<glyph unicode="&#xe613;" glyph-name="pencil5" d="M978.099 926.902c-28.768 28.768-67.016 44.611-107.699 44.611-40.685 0-78.933-15.843-107.699-44.611l-499.2-499.2c-2.645-2.645-4.678-5.837-5.957-9.357l-102.4-281.6c-3.4-9.347-1.077-19.818 5.957-26.848 4.885-4.89 11.43-7.501 18.104-7.501 2.933 0 5.891 0.501 8.744 1.541l281.6 102.4c3.515 1.28 6.709 3.312 9.354 5.96l499.2 499.2c28.766 28.768 44.614 67.018 44.614 107.702-0.003 40.686-15.846 78.934-44.618 107.702zM446.714 252.517l-224.709-81.71 81.712 224.706 413.083 413.085 142.997-142.997-413.083-413.083zM941.901 747.702l-45.901-45.899-142.997 142.997 45.901 45.899c19.096 19.098 44.488 29.614 71.496 29.614s52.4-10.518 71.501-29.616c19.096-19.098 29.614-44.49 29.614-71.498s-10.52-52.4-29.614-71.498zM896-51.2h-819.2c-42.347 0-76.8 34.451-76.8 76.8v819.2c0 42.347 34.453 76.8 76.8 76.8h512c14.139 0 25.6-11.462 25.6-25.6s-11.461-25.6-25.6-25.6h-512c-14.115 0-25.6-11.485-25.6-25.6v-819.2c0-14.115 11.485-25.6 25.6-25.6h819.2c14.115 0 25.6 11.485 25.6 25.6v512c0 14.138 11.461 25.6 25.6 25.6s25.6-11.462 25.6-25.6v-512c0-42.349-34.451-76.8-76.8-76.8z" />
<glyph unicode="&#xe614;" glyph-name="feather" d="M25.621-51.2c-0.453 0-0.906 0.011-1.363 0.035-13.918 0.73-24.694 12.459-24.245 26.389 6.037 187.152 56.115 355.309 148.842 499.802 76.144 118.651 180.746 221.237 310.902 304.909 124.197 79.84 247.318 126.366 328.738 151.339 93.522 28.686 172.811 41.526 209.906 41.526 14.139 0 25.6-11.462 25.6-25.6 0-61.803-59.074-120.877-84.299-146.102-40.987-40.989-116.48-67.2-189.488-92.549-22.901-7.952-46.054-15.99-67.638-24.341 72.21 6.286 143.658 7.010 172.386 7.010 4.483 0 6.92-0.021 6.92-0.021 9.502-0.083 18.179-5.422 22.534-13.867s3.674-18.608-1.77-26.398c-54.811-78.418-121.653-139.506-204.344-186.758-38.766-22.15-81.678-32.467-135.050-32.467-31.558 0-63.579 3.566-94.546 7.014-30.344 3.379-61.722 6.874-91.982 6.874-55.731 0-98.205-11.749-137.723-38.093-141.539-94.36-167.621-431.563-167.867-434.957-0.978-13.445-12.186-23.744-25.512-23.744zM966.262 919.2c-88.459-10.819-288.438-59.946-478.819-182.333-97.731-62.827-205.734-154.006-289.904-282.282 45.957 28.766 96.786 42.208 159.182 42.208 33.102 0 65.917-3.654 97.65-7.189 30.939-3.445 60.165-6.701 88.88-6.701 44.096 0 78.936 8.174 109.646 25.723 61.973 35.413 112.709 77.635 156.774 130.843-63.938-1.429-173.421-6.502-239.885-24.208-10.286-2.741-21.2 1.174-27.402 9.83-6.2 8.656-6.395 20.248-0.488 29.107 31.418 47.128 109.186 74.13 191.52 102.717 67.55 23.454 137.398 47.706 170.078 80.386 14.752 14.749 48.515 48.514 62.766 81.898z" />
<glyph unicode="&#xe615;" glyph-name="feather2" d="M25.621-51.197c-0.464 0-0.928 0.013-1.397 0.037-13.904 0.749-24.661 12.469-24.211 26.384 6.037 187.152 56.115 355.309 148.842 499.802 76.144 118.651 180.746 221.237 310.902 304.909 124.197 79.84 247.318 126.366 328.738 151.339 93.522 28.686 172.811 41.526 209.906 41.526 14.139 0 25.6-11.462 25.6-25.6s-11.461-25.6-25.6-25.6c-59.699 0-291.698-43.781-510.957-184.734-96.49-62.029-203.006-151.715-286.701-277.434 29.013 18.226 62.395 29.723 100.939 34.87 48.805 6.517 100.112 2.27 149.73-1.837 74.598-6.178 145.059-12.010 202.739 16.832 95.558 47.779 169.443 145.099 170.178 146.075 8.498 11.296 24.539 13.578 35.838 5.090 11.299-8.486 13.59-24.517 5.11-35.822-3.285-4.378-81.651-107.846-188.232-161.138-70.509-35.253-151.522-28.549-229.861-22.062-94.962 7.862-184.658 15.286-249.885-49.942-122.49-122.49-145.952-416.067-146.174-419.018-1.010-13.416-12.206-23.677-25.504-23.677zM588.813 665.594c-9.891 0-19.309 5.765-23.498 15.416-5.629 12.97 0.325 28.046 13.296 33.674 100.901 43.782 329.546 104.517 368.589 104.517 14.139 0 25.6-11.462 25.6-25.6s-11.461-25.6-25.6-25.6c-27.019 0-245.427-55.688-348.211-100.285-3.317-1.44-6.774-2.122-10.176-2.122z" />
<glyph unicode="&#xe616;" glyph-name="feather3" d="M230.43 204.798c-0.877 0-1.76 0.043-2.651 0.136-13.982 1.438-24.19 13.883-22.866 27.878 12.214 129.035 54.398 245.043 125.379 344.802 58.243 81.858 135.643 152.653 230.050 210.421 163.32 99.933 334.048 133.565 386.858 133.565 14.139 0 25.6-11.462 25.6-25.6 0-48.333-44.909-93.242-64.088-112.419-31.296-31.294-87.662-50.866-142.174-69.792-1.584-0.55-3.171-1.101-4.766-1.656 34.917 1.725 64.955 1.984 79.731 1.984 3.344 0 5.165-0.016 5.165-0.016 9.502-0.083 18.179-5.422 22.533-13.867s3.675-18.608-1.768-26.398c-40.965-58.606-90.93-104.269-152.749-139.6-29.626-16.928-62.306-24.813-102.853-24.813-23.632 0-47.414 2.65-70.413 5.21-22.176 2.47-45.106 5.024-67.034 5.024-39.653 0-69.797-8.307-97.739-26.936-0.883-0.589-1.802-1.122-2.75-1.597-37.104-18.554-69.234-69.17-92.912-146.379-18.786-61.25-25.075-116.622-25.136-117.173-1.456-13.080-12.533-22.773-25.416-22.773zM911.595 866.925c-66.794-10.248-197.187-44.645-324.528-122.563-70.47-43.12-149.366-105.859-212.848-194.24 29.499 14.075 61.995 20.736 100.163 20.736 24.77 0 49.136-2.714 72.701-5.338 22.605-2.518 43.957-4.896 64.746-4.896 31.27 0 55.88 5.741 77.448 18.066 40.4 23.090 74.216 50.166 103.848 83.426-47.512-1.478-116.565-5.635-160.013-17.208-10.285-2.741-21.198 1.173-27.402 9.832-6.2 8.658-6.394 20.248-0.488 29.107 24.41 36.61 82.752 56.866 144.52 78.312 49.054 17.032 99.779 34.643 122.766 57.629 8.101 8.098 27.242 27.24 39.086 47.138zM387.474 106.24c-0.29 0.318-29.074 32.84-29.074 72.96 0 18.435-9.894 35.91-27.862 49.205-11.366 8.411-27.398 6.013-35.806-5.354-8.41-11.366-6.013-27.397 5.354-35.806 5.848-4.326 7.115-7.494 7.115-8.045 0-0.886-2.754-6.763-15.84-13.306-15.627-7.813-37.845-12.294-60.96-12.294s-45.333 4.482-60.96 12.294c-13.086 6.544-15.84 12.421-15.84 13.306 0 0.434 0.822 2.76 4.842 6.234 10.696 9.245 11.872 25.411 2.627 36.107-9.246 10.699-25.411 11.872-36.109 2.627-18.646-16.115-22.56-33.349-22.56-44.968 0-40.182-28.861-72.72-29.074-72.96-27.821-30.35-27.821-79.731 0-110.082 4.443-4.846 46.602-47.358 157.074-47.358s152.63 42.512 157.074 47.36c27.821 30.349 27.821 79.731 0 110.080zM349.733 30.757c-0.283-0.309-32.11-30.757-119.333-30.757-84.8 0-117.387 28.981-119.592 31.045-9.722 10.936-9.635 29.803 0.261 40.598 1.128 1.23 18.736 20.752 30.938 50.848 1.477-0.818 2.984-1.618 4.538-2.394 22.826-11.411 52.606-17.698 83.856-17.698s61.030 6.286 83.856 17.699c1.554 0.776 3.061 1.576 4.538 2.394 12.202-30.098 29.81-49.619 30.938-50.848 9.984-10.891 9.984-29.998 0.002-40.888z" />
<glyph unicode="&#xe617;" glyph-name="pen2" d="M814.080 348.16c-133.638 178.182-211.768 433.933-224.056 491.733 15.328 14.37 24.376 34.67 24.376 56.107 0 42.347-34.451 76.8-76.8 76.8-15.266 0-35.298-1.49-51.2-11.826-15.902 10.336-35.933 11.826-51.2 11.826-42.347 0-76.8-34.453-76.8-76.8 0-21.437 9.050-41.741 24.379-56.11-12.288-57.798-90.421-313.546-224.059-491.73-7.645-10.19-6.63-24.453 2.378-33.461 37.253-37.253 128.971-142.838 143.99-218.182-20.869-8.778-42.019-27.357-63.168-55.557-20.352-27.134-33.853-53.981-34.418-55.11-3.966-7.936-3.544-17.36 1.122-24.907 4.664-7.547 12.904-12.141 21.776-12.141h512c8.872 0 17.112 4.594 21.776 12.141 4.664 7.549 5.090 16.971 1.12 24.907-0.565 1.13-14.066 27.976-34.418 55.11-21.149 28.198-42.298 46.774-63.165 55.555 15.037 75.251 106.741 180.899 143.986 218.184 9.011 9.006 10.024 23.269 2.381 33.461zM486.4 358.4c14.115 0 25.6-11.485 25.6-25.6s-11.485-25.6-25.6-25.6-25.6 11.485-25.6 25.6 11.485 25.6 25.6 25.6zM697.331 0h-421.862c18.768 27.090 41.574 51.2 57.331 51.2h307.2c15.758 0 38.566-24.114 57.331-51.2zM696.32 258.56c-45.142-60.187-71.803-112.565-79.547-156.16h-260.747c-7.742 43.595-34.405 95.971-79.546 156.16-24.547 32.73-48.883 60.165-63.974 76.427 74.946 105.171 130.011 228.986 163.626 316.445 17.467 45.451 33.438 92.486 44.966 132.44 16.798 58.211 15.011 66.963 13.942 72.192-1.536 7.528-6.138 13.997-12.622 17.747-7.906 4.573-12.818 13.075-12.818 22.189 0 14.115 11.485 25.6 25.6 25.6 19.445 0 23.709-3.906 23.736-3.946 1.864-2.698 1.864-14.106 1.864-21.654v-490.803c-29.797-10.568-51.2-39.024-51.2-72.397 0-42.349 34.453-76.8 76.8-76.8 42.349 0 76.8 34.451 76.8 76.8 0 33.373-21.403 61.83-51.2 72.397v490.803c0 7.549 0 18.957 1.864 21.654 0.027 0.040 4.291 3.946 23.736 3.946 14.115 0 25.6-11.485 25.6-25.6 0-9.112-4.91-17.614-12.818-22.19-6.485-3.754-11.085-10.222-12.621-17.749-1.067-5.229-2.853-13.981 13.944-72.19 11.528-39.955 27.499-86.99 44.966-132.44 33.613-87.459 88.677-211.272 163.622-316.445-15.091-16.262-39.427-43.696-63.974-76.426z" />
<glyph unicode="&#xe618;" glyph-name="pen-add" d="M660.48 348.16c-133.638 178.182-211.768 433.933-224.056 491.733 15.326 14.368 24.376 34.672 24.376 56.107 0 42.347-34.453 76.8-76.8 76.8-15.267 0-35.298-1.49-51.2-11.826-15.902 10.336-35.933 11.826-51.2 11.826-42.347 0-76.8-34.453-76.8-76.8 0-21.438 9.050-41.742 24.379-56.11-12.288-57.798-90.419-313.542-224.059-491.73-7.645-10.19-6.63-24.453 2.378-33.461 37.253-37.253 128.971-142.838 143.99-218.182-20.869-8.778-42.019-27.357-63.168-55.557-20.352-27.134-33.853-53.981-34.418-55.11-3.966-7.936-3.544-17.36 1.122-24.907 4.664-7.549 12.904-12.142 21.776-12.142h512c8.872 0 17.112 4.594 21.776 12.141 4.664 7.549 5.090 16.971 1.12 24.907-0.565 1.13-14.066 27.976-34.418 55.11-21.149 28.198-42.298 46.774-63.165 55.555 15.037 75.251 106.741 180.899 143.986 218.184 9.011 9.008 10.024 23.27 2.381 33.462zM332.8 358.4c14.115 0 25.6-11.485 25.6-25.6s-11.485-25.6-25.6-25.6-25.6 11.485-25.6 25.6 11.485 25.6 25.6 25.6zM543.731 0h-421.862c18.768 27.090 41.574 51.2 57.331 51.2h307.2c15.758 0 38.566-24.114 57.331-51.2zM542.72 258.56c-45.141-60.187-71.803-112.565-79.546-156.16h-260.749c-7.742 43.595-34.405 95.971-79.546 156.16-24.547 32.73-48.883 60.165-63.974 76.427 74.946 105.171 130.011 228.986 163.626 316.445 17.469 45.451 33.438 92.486 44.968 132.44 16.798 58.211 15.010 66.963 13.942 72.192-1.536 7.528-6.139 13.997-12.624 17.747-7.907 4.573-12.818 13.075-12.818 22.189 0 14.115 11.485 25.6 25.6 25.6 19.445 0 23.709-3.906 23.736-3.946 1.864-2.698 1.864-14.106 1.864-21.654v-490.803c-29.797-10.568-51.2-39.024-51.2-72.397 0-42.349 34.453-76.8 76.8-76.8s76.8 34.451 76.8 76.8c0 33.373-21.403 61.829-51.2 72.397v490.803c0 7.549 0 18.957 1.864 21.654 0.027 0.040 4.291 3.946 23.736 3.946 14.115 0 25.6-11.485 25.6-25.6 0-9.112-4.91-17.614-12.816-22.19-6.485-3.754-11.085-10.222-12.621-17.749-1.067-5.229-2.853-13.981 13.944-72.19 11.53-39.955 27.499-86.99 44.966-132.44 33.613-87.459 88.677-211.272 163.622-316.445-15.093-16.262-39.429-43.696-63.976-76.426zM947.2 768h-128v128c0 14.138-11.461 25.6-25.6 25.6s-25.6-11.462-25.6-25.6v-128h-128c-14.139 0-25.6-11.462-25.6-25.6s11.461-25.6 25.6-25.6h128v-128c0-14.138 11.461-25.6 25.6-25.6s25.6 11.462 25.6 25.6v128h128c14.139 0 25.6 11.462 25.6 25.6s-11.461 25.6-25.6 25.6z" />
<glyph unicode="&#xe619;" glyph-name="pen-remove" d="M660.48 348.16c-133.638 178.182-211.768 433.933-224.056 491.733 15.326 14.368 24.376 34.672 24.376 56.107 0 42.347-34.453 76.8-76.8 76.8-15.267 0-35.298-1.49-51.2-11.826-15.902 10.336-35.933 11.826-51.2 11.826-42.347 0-76.8-34.453-76.8-76.8 0-21.438 9.050-41.742 24.379-56.11-12.288-57.798-90.419-313.542-224.059-491.73-7.645-10.19-6.63-24.453 2.378-33.461 37.253-37.253 128.971-142.838 143.99-218.182-20.869-8.778-42.019-27.357-63.168-55.557-20.352-27.134-33.853-53.981-34.418-55.11-3.966-7.936-3.544-17.36 1.122-24.907 4.664-7.549 12.904-12.142 21.776-12.142h512c8.872 0 17.112 4.594 21.776 12.141 4.664 7.549 5.090 16.971 1.12 24.907-0.565 1.13-14.066 27.976-34.418 55.11-21.149 28.198-42.298 46.774-63.165 55.555 15.037 75.251 106.741 180.899 143.986 218.184 9.011 9.008 10.024 23.27 2.381 33.462zM332.8 358.4c14.115 0 25.6-11.485 25.6-25.6s-11.485-25.6-25.6-25.6-25.6 11.485-25.6 25.6 11.485 25.6 25.6 25.6zM543.731 0h-421.862c18.768 27.090 41.574 51.2 57.331 51.2h307.2c15.758 0 38.566-24.114 57.331-51.2zM542.72 258.56c-45.141-60.187-71.803-112.565-79.546-156.16h-260.749c-7.742 43.595-34.405 95.971-79.546 156.16-24.547 32.73-48.883 60.165-63.974 76.427 74.946 105.171 130.011 228.986 163.626 316.445 17.469 45.451 33.438 92.486 44.968 132.44 16.798 58.211 15.010 66.963 13.942 72.192-1.536 7.528-6.139 13.997-12.624 17.747-7.907 4.573-12.818 13.075-12.818 22.189 0 14.115 11.485 25.6 25.6 25.6 19.445 0 23.709-3.906 23.736-3.946 1.864-2.698 1.864-14.106 1.864-21.654v-490.803c-29.797-10.568-51.2-39.024-51.2-72.397 0-42.349 34.453-76.8 76.8-76.8s76.8 34.451 76.8 76.8c0 33.373-21.403 61.829-51.2 72.397v490.803c0 7.549 0 18.957 1.864 21.654 0.027 0.040 4.291 3.946 23.736 3.946 14.115 0 25.6-11.485 25.6-25.6 0-9.112-4.91-17.614-12.816-22.19-6.485-3.754-11.085-10.222-12.621-17.749-1.067-5.229-2.853-13.981 13.944-72.19 11.53-39.955 27.499-86.99 44.966-132.44 33.613-87.459 88.677-211.272 163.622-316.445-15.093-16.262-39.429-43.696-63.976-76.426zM947.2 716.8h-307.2c-14.139 0-25.6 11.462-25.6 25.6s11.461 25.6 25.6 25.6h307.2c14.139 0 25.6-11.462 25.6-25.6s-11.461-25.6-25.6-25.6z" />
<glyph unicode="&#xe61a;" glyph-name="vector" d="M947.2 460.269c-11.698 0-22.784-2.646-32.709-7.358l-146.491 146.493v91.797c0 14.138-11.461 25.6-25.6 25.6h-91.797l-146.109 146.109c4.806 10.027 7.506 21.25 7.506 33.091 0 42.347-34.453 76.8-76.8 76.8s-76.8-34.453-76.8-76.8 34.453-76.8 76.8-76.8c11.842 0 23.064 2.698 33.091 7.506l69.371-69.373c-59.445 14.544-124.038 13.59-193.202-2.994-81.605-19.566-154.435-57.512-206.909-90.6-2.954 1.19-6.173 1.861-9.552 1.861h-102.4c-14.138 0-25.6-11.462-25.6-25.6v-102.4c0-14.138 11.462-25.6 25.6-25.6h102.4c14.138 0 25.6 11.462 25.6 25.6v75.613c106.976 70.114 297.386 160.312 460.8 56.152v-80.565c0-14.138 11.461-25.6 25.6-25.6h80.554c107.123-168.61 2.962-370.198-56.16-460.8h-75.594c-14.139 0-25.6-11.461-25.6-25.6v-102.4c0-14.139 11.461-25.6 25.6-25.6h102.4c14.139 0 25.6 11.461 25.6 25.6v102.4c0 3.379-0.67 6.597-1.859 9.55 33.088 52.475 71.034 125.302 90.6 206.91 16.582 69.163 17.536 133.757 2.992 193.202l69.656-69.658c-4.821-10.016-7.523-21.234-7.523-33.072 0-42.2 34.333-76.533 76.534-76.533s76.534 34.333 76.534 76.534-34.333 76.534-76.534 76.534zM102.4 563.2h-51.2v51.2h51.2v-51.2zM665.6 0h-51.2v51.2h51.2v-51.2zM409.6 896c0 14.115 11.485 25.6 25.6 25.6s25.6-11.485 25.6-25.6-11.485-25.6-25.6-25.6-25.6 11.485-25.6 25.6zM665.6 665.6h51.2v-51.2h-51.2v51.2zM947.2 358.4c-13.968 0-25.334 11.366-25.334 25.334s11.366 25.334 25.334 25.334 25.334-11.366 25.334-25.334-11.366-25.334-25.334-25.334z" />
<glyph unicode="&#xe61b;" glyph-name="pen3" d="M990.901 658.101l-307.2 307.2c-8.429 8.432-21.56 9.925-31.67 3.606l-409.6-256c-7.485-4.678-12.032-12.798-12.032-21.626-0.003-0.504-0.658-51.741-28.995-160.781-26.147-100.619-81.888-272.434-198.939-519.541-4.632-9.778-2.616-21.411 5.034-29.061 4.91-4.912 11.461-7.499 18.109-7.499 3.709 0 7.45 0.806 10.952 2.464 247.109 117.051 418.923 172.792 519.544 198.941 109.042 28.338 160.277 28.992 160.698 28.995 8.827 0 17.032 4.547 21.709 12.032l256 409.6c6.318 10.109 4.822 23.24-3.608 31.669zM702.171 255.298c-49.29-3.731-223.314-27.166-558.454-173.382l343.746 343.746c16.59-10.179 36.088-16.061 56.938-16.061 60.213 0 109.2 48.987 109.2 109.2s-48.987 109.2-109.2 109.2c-60.213 0-109.2-48.987-109.2-109.2 0-20.85 5.882-40.347 16.061-56.936l-343.747-343.747c146.218 335.141 169.651 509.165 173.382 558.454l381.003 238.126 278.4-278.4-238.128-381zM486.4 518.8c0 31.981 26.019 58 58 58s58-26.019 58-58-26.019-58-58-58-58 26.019-58 58z" />
<glyph unicode="&#xe61c;" glyph-name="blog" d="M530.101 350.901l-128 128c-6.658 6.659-16.434 9.125-25.458 6.419l-256-76.8c-8.648-2.594-15.29-9.552-17.48-18.31l-102.4-409.6c-2.181-8.725 0.376-17.954 6.734-24.31 4.861-4.862 11.397-7.499 18.102-7.499 2.067 0 4.152 0.25 6.208 0.765l409.6 102.4c8.76 2.19 15.717 8.832 18.312 17.48l76.8 256c2.707 9.019 0.242 18.797-6.419 25.456zM414.864 98.102l-305.808-76.451 139.453 139.454c10.026-4.806 21.25-7.506 33.091-7.506 42.347 0 76.8 34.451 76.8 76.8s-34.453 76.8-76.8 76.8-76.8-34.451-76.8-76.8c0-11.842 2.698-23.064 7.506-33.091l-139.454-139.454 76.453 305.81 227.406 68.222 106.376-106.374-68.222-227.41zM256 230.4c0 14.115 11.485 25.6 25.6 25.6s25.6-11.485 25.6-25.6-11.485-25.6-25.6-25.6-25.6 11.485-25.6 25.6zM691.2 358.4c-14.139 0-25.6 11.461-25.6 25.6 0 127.043-103.357 230.4-230.4 230.4-14.138 0-25.6 11.462-25.6 25.6s11.462 25.6 25.6 25.6c155.275 0 281.6-126.325 281.6-281.6 0-14.139-11.461-25.6-25.6-25.6zM844.8 358.4c-14.139 0-25.6 11.461-25.6 25.6 0 211.738-172.261 384-384 384-14.138 0-25.6 11.462-25.6 25.6s11.462 25.6 25.6 25.6c116.245 0 225.534-45.269 307.733-127.467s127.467-191.486 127.467-307.733c0-14.139-11.461-25.6-25.6-25.6zM998.4 358.4c-14.139 0-25.6 11.461-25.6 25.6 0 296.434-241.166 537.6-537.6 537.6-14.138 0-25.6 11.462-25.6 25.6s11.462 25.6 25.6 25.6c79.477 0 156.589-15.571 229.195-46.282 70.117-29.658 133.083-72.107 187.15-126.174s96.517-117.032 126.173-187.149c30.71-72.606 46.282-149.718 46.282-229.195 0-14.139-11.461-25.6-25.6-25.6z" />
</font>
</defs>
</svg>
